%
M48
M72
T01C0.01181
T02C0.01772
T03C0.01969
T04C0.03200
T05C0.04000
T06C0.11811
%
T01
X58087Y77378
X58874Y85646
X58480Y103756
X74228Y117535
X72260Y130134
X90764Y113205
X94701Y114386
X93520Y120685
X95882Y127378
X103756Y127378
X105724Y115567
X76197Y84071
X80134Y80134
X99819Y64386
X123441Y72260
T02
X54543Y89976
T03
X84071Y56512
X109661Y72260
T04
X45764Y68323
X35764Y68323
T05
X19268Y38953
X19268Y28953
X9268Y28953
X9268Y38953
X9268Y48953
X9268Y58953
X9268Y68953
X9268Y78953
X9268Y88953
X9268Y98953
X9268Y108953
X9268Y118953
X9268Y128953
X9268Y138953
X19268Y138953
X28638Y154937
X38638Y154937
X48638Y154937
X76945Y152063
X76945Y142063
X86945Y142063
X86945Y152063
X96945Y152063
X96945Y142063
X106945Y142063
X106945Y152063
X125252Y138953
X135252Y138953
X135252Y128953
X135252Y118953
X135252Y108953
X135252Y98953
X135252Y88953
X135252Y78953
X135252Y68953
X135252Y58953
X135252Y48953
X135252Y38953
X135252Y28953
X125252Y28953
T06
X13205Y13205
X131315Y13205
X131315Y154937
X13205Y154937
M30
