G75*
%MOIN*%
%OFA0B0*%
%FSLAX25Y25*%
%IPPOS*%
%LPD*%
%AMOC8*
5,1,8,0,0,1.08239X$1,22.5*
%
%ADD10C,0.00000*%
%ADD11R,0.06299X0.05512*%
%ADD12R,0.03937X0.04331*%
%ADD13R,0.05512X0.06299*%
%ADD14R,0.04331X0.03937*%
%ADD15R,0.05000X0.05787*%
%ADD16C,0.07400*%
%ADD17R,0.08800X0.04800*%
%ADD18R,0.08661X0.14173*%
%ADD19R,0.00787X0.03937*%
%ADD20R,0.03937X0.00787*%
%ADD21C,0.05000*%
%ADD22R,0.01575X0.07874*%
%ADD23C,0.06600*%
%ADD24OC8,0.07400*%
%ADD25C,0.01181*%
%ADD26C,0.04000*%
%ADD27C,0.03372*%
%ADD28C,0.03569*%
%ADD29C,0.01000*%
%ADD30C,0.01600*%
%ADD31C,0.05600*%
%ADD32C,0.05000*%
%ADD33C,0.03200*%
%ADD34C,0.02781*%
%ADD35C,0.00787*%
D10*
X0001394Y0001394D02*
X0001394Y0166748D01*
X0143126Y0166748D01*
X0143126Y0001394D01*
X0001394Y0001394D01*
X0007299Y0013205D02*
X0007301Y0013358D01*
X0007307Y0013512D01*
X0007317Y0013665D01*
X0007331Y0013817D01*
X0007349Y0013970D01*
X0007371Y0014121D01*
X0007396Y0014272D01*
X0007426Y0014423D01*
X0007460Y0014573D01*
X0007497Y0014721D01*
X0007538Y0014869D01*
X0007583Y0015015D01*
X0007632Y0015161D01*
X0007685Y0015305D01*
X0007741Y0015447D01*
X0007801Y0015588D01*
X0007865Y0015728D01*
X0007932Y0015866D01*
X0008003Y0016002D01*
X0008078Y0016136D01*
X0008155Y0016268D01*
X0008237Y0016398D01*
X0008321Y0016526D01*
X0008409Y0016652D01*
X0008500Y0016775D01*
X0008594Y0016896D01*
X0008692Y0017014D01*
X0008792Y0017130D01*
X0008896Y0017243D01*
X0009002Y0017354D01*
X0009111Y0017462D01*
X0009223Y0017567D01*
X0009337Y0017668D01*
X0009455Y0017767D01*
X0009574Y0017863D01*
X0009696Y0017956D01*
X0009821Y0018045D01*
X0009948Y0018132D01*
X0010077Y0018214D01*
X0010208Y0018294D01*
X0010341Y0018370D01*
X0010476Y0018443D01*
X0010613Y0018512D01*
X0010752Y0018577D01*
X0010892Y0018639D01*
X0011034Y0018697D01*
X0011177Y0018752D01*
X0011322Y0018803D01*
X0011468Y0018850D01*
X0011615Y0018893D01*
X0011763Y0018932D01*
X0011912Y0018968D01*
X0012062Y0018999D01*
X0012213Y0019027D01*
X0012364Y0019051D01*
X0012517Y0019071D01*
X0012669Y0019087D01*
X0012822Y0019099D01*
X0012975Y0019107D01*
X0013128Y0019111D01*
X0013282Y0019111D01*
X0013435Y0019107D01*
X0013588Y0019099D01*
X0013741Y0019087D01*
X0013893Y0019071D01*
X0014046Y0019051D01*
X0014197Y0019027D01*
X0014348Y0018999D01*
X0014498Y0018968D01*
X0014647Y0018932D01*
X0014795Y0018893D01*
X0014942Y0018850D01*
X0015088Y0018803D01*
X0015233Y0018752D01*
X0015376Y0018697D01*
X0015518Y0018639D01*
X0015658Y0018577D01*
X0015797Y0018512D01*
X0015934Y0018443D01*
X0016069Y0018370D01*
X0016202Y0018294D01*
X0016333Y0018214D01*
X0016462Y0018132D01*
X0016589Y0018045D01*
X0016714Y0017956D01*
X0016836Y0017863D01*
X0016955Y0017767D01*
X0017073Y0017668D01*
X0017187Y0017567D01*
X0017299Y0017462D01*
X0017408Y0017354D01*
X0017514Y0017243D01*
X0017618Y0017130D01*
X0017718Y0017014D01*
X0017816Y0016896D01*
X0017910Y0016775D01*
X0018001Y0016652D01*
X0018089Y0016526D01*
X0018173Y0016398D01*
X0018255Y0016268D01*
X0018332Y0016136D01*
X0018407Y0016002D01*
X0018478Y0015866D01*
X0018545Y0015728D01*
X0018609Y0015588D01*
X0018669Y0015447D01*
X0018725Y0015305D01*
X0018778Y0015161D01*
X0018827Y0015015D01*
X0018872Y0014869D01*
X0018913Y0014721D01*
X0018950Y0014573D01*
X0018984Y0014423D01*
X0019014Y0014272D01*
X0019039Y0014121D01*
X0019061Y0013970D01*
X0019079Y0013817D01*
X0019093Y0013665D01*
X0019103Y0013512D01*
X0019109Y0013358D01*
X0019111Y0013205D01*
X0019109Y0013052D01*
X0019103Y0012898D01*
X0019093Y0012745D01*
X0019079Y0012593D01*
X0019061Y0012440D01*
X0019039Y0012289D01*
X0019014Y0012138D01*
X0018984Y0011987D01*
X0018950Y0011837D01*
X0018913Y0011689D01*
X0018872Y0011541D01*
X0018827Y0011395D01*
X0018778Y0011249D01*
X0018725Y0011105D01*
X0018669Y0010963D01*
X0018609Y0010822D01*
X0018545Y0010682D01*
X0018478Y0010544D01*
X0018407Y0010408D01*
X0018332Y0010274D01*
X0018255Y0010142D01*
X0018173Y0010012D01*
X0018089Y0009884D01*
X0018001Y0009758D01*
X0017910Y0009635D01*
X0017816Y0009514D01*
X0017718Y0009396D01*
X0017618Y0009280D01*
X0017514Y0009167D01*
X0017408Y0009056D01*
X0017299Y0008948D01*
X0017187Y0008843D01*
X0017073Y0008742D01*
X0016955Y0008643D01*
X0016836Y0008547D01*
X0016714Y0008454D01*
X0016589Y0008365D01*
X0016462Y0008278D01*
X0016333Y0008196D01*
X0016202Y0008116D01*
X0016069Y0008040D01*
X0015934Y0007967D01*
X0015797Y0007898D01*
X0015658Y0007833D01*
X0015518Y0007771D01*
X0015376Y0007713D01*
X0015233Y0007658D01*
X0015088Y0007607D01*
X0014942Y0007560D01*
X0014795Y0007517D01*
X0014647Y0007478D01*
X0014498Y0007442D01*
X0014348Y0007411D01*
X0014197Y0007383D01*
X0014046Y0007359D01*
X0013893Y0007339D01*
X0013741Y0007323D01*
X0013588Y0007311D01*
X0013435Y0007303D01*
X0013282Y0007299D01*
X0013128Y0007299D01*
X0012975Y0007303D01*
X0012822Y0007311D01*
X0012669Y0007323D01*
X0012517Y0007339D01*
X0012364Y0007359D01*
X0012213Y0007383D01*
X0012062Y0007411D01*
X0011912Y0007442D01*
X0011763Y0007478D01*
X0011615Y0007517D01*
X0011468Y0007560D01*
X0011322Y0007607D01*
X0011177Y0007658D01*
X0011034Y0007713D01*
X0010892Y0007771D01*
X0010752Y0007833D01*
X0010613Y0007898D01*
X0010476Y0007967D01*
X0010341Y0008040D01*
X0010208Y0008116D01*
X0010077Y0008196D01*
X0009948Y0008278D01*
X0009821Y0008365D01*
X0009696Y0008454D01*
X0009574Y0008547D01*
X0009455Y0008643D01*
X0009337Y0008742D01*
X0009223Y0008843D01*
X0009111Y0008948D01*
X0009002Y0009056D01*
X0008896Y0009167D01*
X0008792Y0009280D01*
X0008692Y0009396D01*
X0008594Y0009514D01*
X0008500Y0009635D01*
X0008409Y0009758D01*
X0008321Y0009884D01*
X0008237Y0010012D01*
X0008155Y0010142D01*
X0008078Y0010274D01*
X0008003Y0010408D01*
X0007932Y0010544D01*
X0007865Y0010682D01*
X0007801Y0010822D01*
X0007741Y0010963D01*
X0007685Y0011105D01*
X0007632Y0011249D01*
X0007583Y0011395D01*
X0007538Y0011541D01*
X0007497Y0011689D01*
X0007460Y0011837D01*
X0007426Y0011987D01*
X0007396Y0012138D01*
X0007371Y0012289D01*
X0007349Y0012440D01*
X0007331Y0012593D01*
X0007317Y0012745D01*
X0007307Y0012898D01*
X0007301Y0013052D01*
X0007299Y0013205D01*
X0125409Y0013205D02*
X0125411Y0013358D01*
X0125417Y0013512D01*
X0125427Y0013665D01*
X0125441Y0013817D01*
X0125459Y0013970D01*
X0125481Y0014121D01*
X0125506Y0014272D01*
X0125536Y0014423D01*
X0125570Y0014573D01*
X0125607Y0014721D01*
X0125648Y0014869D01*
X0125693Y0015015D01*
X0125742Y0015161D01*
X0125795Y0015305D01*
X0125851Y0015447D01*
X0125911Y0015588D01*
X0125975Y0015728D01*
X0126042Y0015866D01*
X0126113Y0016002D01*
X0126188Y0016136D01*
X0126265Y0016268D01*
X0126347Y0016398D01*
X0126431Y0016526D01*
X0126519Y0016652D01*
X0126610Y0016775D01*
X0126704Y0016896D01*
X0126802Y0017014D01*
X0126902Y0017130D01*
X0127006Y0017243D01*
X0127112Y0017354D01*
X0127221Y0017462D01*
X0127333Y0017567D01*
X0127447Y0017668D01*
X0127565Y0017767D01*
X0127684Y0017863D01*
X0127806Y0017956D01*
X0127931Y0018045D01*
X0128058Y0018132D01*
X0128187Y0018214D01*
X0128318Y0018294D01*
X0128451Y0018370D01*
X0128586Y0018443D01*
X0128723Y0018512D01*
X0128862Y0018577D01*
X0129002Y0018639D01*
X0129144Y0018697D01*
X0129287Y0018752D01*
X0129432Y0018803D01*
X0129578Y0018850D01*
X0129725Y0018893D01*
X0129873Y0018932D01*
X0130022Y0018968D01*
X0130172Y0018999D01*
X0130323Y0019027D01*
X0130474Y0019051D01*
X0130627Y0019071D01*
X0130779Y0019087D01*
X0130932Y0019099D01*
X0131085Y0019107D01*
X0131238Y0019111D01*
X0131392Y0019111D01*
X0131545Y0019107D01*
X0131698Y0019099D01*
X0131851Y0019087D01*
X0132003Y0019071D01*
X0132156Y0019051D01*
X0132307Y0019027D01*
X0132458Y0018999D01*
X0132608Y0018968D01*
X0132757Y0018932D01*
X0132905Y0018893D01*
X0133052Y0018850D01*
X0133198Y0018803D01*
X0133343Y0018752D01*
X0133486Y0018697D01*
X0133628Y0018639D01*
X0133768Y0018577D01*
X0133907Y0018512D01*
X0134044Y0018443D01*
X0134179Y0018370D01*
X0134312Y0018294D01*
X0134443Y0018214D01*
X0134572Y0018132D01*
X0134699Y0018045D01*
X0134824Y0017956D01*
X0134946Y0017863D01*
X0135065Y0017767D01*
X0135183Y0017668D01*
X0135297Y0017567D01*
X0135409Y0017462D01*
X0135518Y0017354D01*
X0135624Y0017243D01*
X0135728Y0017130D01*
X0135828Y0017014D01*
X0135926Y0016896D01*
X0136020Y0016775D01*
X0136111Y0016652D01*
X0136199Y0016526D01*
X0136283Y0016398D01*
X0136365Y0016268D01*
X0136442Y0016136D01*
X0136517Y0016002D01*
X0136588Y0015866D01*
X0136655Y0015728D01*
X0136719Y0015588D01*
X0136779Y0015447D01*
X0136835Y0015305D01*
X0136888Y0015161D01*
X0136937Y0015015D01*
X0136982Y0014869D01*
X0137023Y0014721D01*
X0137060Y0014573D01*
X0137094Y0014423D01*
X0137124Y0014272D01*
X0137149Y0014121D01*
X0137171Y0013970D01*
X0137189Y0013817D01*
X0137203Y0013665D01*
X0137213Y0013512D01*
X0137219Y0013358D01*
X0137221Y0013205D01*
X0137219Y0013052D01*
X0137213Y0012898D01*
X0137203Y0012745D01*
X0137189Y0012593D01*
X0137171Y0012440D01*
X0137149Y0012289D01*
X0137124Y0012138D01*
X0137094Y0011987D01*
X0137060Y0011837D01*
X0137023Y0011689D01*
X0136982Y0011541D01*
X0136937Y0011395D01*
X0136888Y0011249D01*
X0136835Y0011105D01*
X0136779Y0010963D01*
X0136719Y0010822D01*
X0136655Y0010682D01*
X0136588Y0010544D01*
X0136517Y0010408D01*
X0136442Y0010274D01*
X0136365Y0010142D01*
X0136283Y0010012D01*
X0136199Y0009884D01*
X0136111Y0009758D01*
X0136020Y0009635D01*
X0135926Y0009514D01*
X0135828Y0009396D01*
X0135728Y0009280D01*
X0135624Y0009167D01*
X0135518Y0009056D01*
X0135409Y0008948D01*
X0135297Y0008843D01*
X0135183Y0008742D01*
X0135065Y0008643D01*
X0134946Y0008547D01*
X0134824Y0008454D01*
X0134699Y0008365D01*
X0134572Y0008278D01*
X0134443Y0008196D01*
X0134312Y0008116D01*
X0134179Y0008040D01*
X0134044Y0007967D01*
X0133907Y0007898D01*
X0133768Y0007833D01*
X0133628Y0007771D01*
X0133486Y0007713D01*
X0133343Y0007658D01*
X0133198Y0007607D01*
X0133052Y0007560D01*
X0132905Y0007517D01*
X0132757Y0007478D01*
X0132608Y0007442D01*
X0132458Y0007411D01*
X0132307Y0007383D01*
X0132156Y0007359D01*
X0132003Y0007339D01*
X0131851Y0007323D01*
X0131698Y0007311D01*
X0131545Y0007303D01*
X0131392Y0007299D01*
X0131238Y0007299D01*
X0131085Y0007303D01*
X0130932Y0007311D01*
X0130779Y0007323D01*
X0130627Y0007339D01*
X0130474Y0007359D01*
X0130323Y0007383D01*
X0130172Y0007411D01*
X0130022Y0007442D01*
X0129873Y0007478D01*
X0129725Y0007517D01*
X0129578Y0007560D01*
X0129432Y0007607D01*
X0129287Y0007658D01*
X0129144Y0007713D01*
X0129002Y0007771D01*
X0128862Y0007833D01*
X0128723Y0007898D01*
X0128586Y0007967D01*
X0128451Y0008040D01*
X0128318Y0008116D01*
X0128187Y0008196D01*
X0128058Y0008278D01*
X0127931Y0008365D01*
X0127806Y0008454D01*
X0127684Y0008547D01*
X0127565Y0008643D01*
X0127447Y0008742D01*
X0127333Y0008843D01*
X0127221Y0008948D01*
X0127112Y0009056D01*
X0127006Y0009167D01*
X0126902Y0009280D01*
X0126802Y0009396D01*
X0126704Y0009514D01*
X0126610Y0009635D01*
X0126519Y0009758D01*
X0126431Y0009884D01*
X0126347Y0010012D01*
X0126265Y0010142D01*
X0126188Y0010274D01*
X0126113Y0010408D01*
X0126042Y0010544D01*
X0125975Y0010682D01*
X0125911Y0010822D01*
X0125851Y0010963D01*
X0125795Y0011105D01*
X0125742Y0011249D01*
X0125693Y0011395D01*
X0125648Y0011541D01*
X0125607Y0011689D01*
X0125570Y0011837D01*
X0125536Y0011987D01*
X0125506Y0012138D01*
X0125481Y0012289D01*
X0125459Y0012440D01*
X0125441Y0012593D01*
X0125427Y0012745D01*
X0125417Y0012898D01*
X0125411Y0013052D01*
X0125409Y0013205D01*
X0125409Y0154937D02*
X0125411Y0155090D01*
X0125417Y0155244D01*
X0125427Y0155397D01*
X0125441Y0155549D01*
X0125459Y0155702D01*
X0125481Y0155853D01*
X0125506Y0156004D01*
X0125536Y0156155D01*
X0125570Y0156305D01*
X0125607Y0156453D01*
X0125648Y0156601D01*
X0125693Y0156747D01*
X0125742Y0156893D01*
X0125795Y0157037D01*
X0125851Y0157179D01*
X0125911Y0157320D01*
X0125975Y0157460D01*
X0126042Y0157598D01*
X0126113Y0157734D01*
X0126188Y0157868D01*
X0126265Y0158000D01*
X0126347Y0158130D01*
X0126431Y0158258D01*
X0126519Y0158384D01*
X0126610Y0158507D01*
X0126704Y0158628D01*
X0126802Y0158746D01*
X0126902Y0158862D01*
X0127006Y0158975D01*
X0127112Y0159086D01*
X0127221Y0159194D01*
X0127333Y0159299D01*
X0127447Y0159400D01*
X0127565Y0159499D01*
X0127684Y0159595D01*
X0127806Y0159688D01*
X0127931Y0159777D01*
X0128058Y0159864D01*
X0128187Y0159946D01*
X0128318Y0160026D01*
X0128451Y0160102D01*
X0128586Y0160175D01*
X0128723Y0160244D01*
X0128862Y0160309D01*
X0129002Y0160371D01*
X0129144Y0160429D01*
X0129287Y0160484D01*
X0129432Y0160535D01*
X0129578Y0160582D01*
X0129725Y0160625D01*
X0129873Y0160664D01*
X0130022Y0160700D01*
X0130172Y0160731D01*
X0130323Y0160759D01*
X0130474Y0160783D01*
X0130627Y0160803D01*
X0130779Y0160819D01*
X0130932Y0160831D01*
X0131085Y0160839D01*
X0131238Y0160843D01*
X0131392Y0160843D01*
X0131545Y0160839D01*
X0131698Y0160831D01*
X0131851Y0160819D01*
X0132003Y0160803D01*
X0132156Y0160783D01*
X0132307Y0160759D01*
X0132458Y0160731D01*
X0132608Y0160700D01*
X0132757Y0160664D01*
X0132905Y0160625D01*
X0133052Y0160582D01*
X0133198Y0160535D01*
X0133343Y0160484D01*
X0133486Y0160429D01*
X0133628Y0160371D01*
X0133768Y0160309D01*
X0133907Y0160244D01*
X0134044Y0160175D01*
X0134179Y0160102D01*
X0134312Y0160026D01*
X0134443Y0159946D01*
X0134572Y0159864D01*
X0134699Y0159777D01*
X0134824Y0159688D01*
X0134946Y0159595D01*
X0135065Y0159499D01*
X0135183Y0159400D01*
X0135297Y0159299D01*
X0135409Y0159194D01*
X0135518Y0159086D01*
X0135624Y0158975D01*
X0135728Y0158862D01*
X0135828Y0158746D01*
X0135926Y0158628D01*
X0136020Y0158507D01*
X0136111Y0158384D01*
X0136199Y0158258D01*
X0136283Y0158130D01*
X0136365Y0158000D01*
X0136442Y0157868D01*
X0136517Y0157734D01*
X0136588Y0157598D01*
X0136655Y0157460D01*
X0136719Y0157320D01*
X0136779Y0157179D01*
X0136835Y0157037D01*
X0136888Y0156893D01*
X0136937Y0156747D01*
X0136982Y0156601D01*
X0137023Y0156453D01*
X0137060Y0156305D01*
X0137094Y0156155D01*
X0137124Y0156004D01*
X0137149Y0155853D01*
X0137171Y0155702D01*
X0137189Y0155549D01*
X0137203Y0155397D01*
X0137213Y0155244D01*
X0137219Y0155090D01*
X0137221Y0154937D01*
X0137219Y0154784D01*
X0137213Y0154630D01*
X0137203Y0154477D01*
X0137189Y0154325D01*
X0137171Y0154172D01*
X0137149Y0154021D01*
X0137124Y0153870D01*
X0137094Y0153719D01*
X0137060Y0153569D01*
X0137023Y0153421D01*
X0136982Y0153273D01*
X0136937Y0153127D01*
X0136888Y0152981D01*
X0136835Y0152837D01*
X0136779Y0152695D01*
X0136719Y0152554D01*
X0136655Y0152414D01*
X0136588Y0152276D01*
X0136517Y0152140D01*
X0136442Y0152006D01*
X0136365Y0151874D01*
X0136283Y0151744D01*
X0136199Y0151616D01*
X0136111Y0151490D01*
X0136020Y0151367D01*
X0135926Y0151246D01*
X0135828Y0151128D01*
X0135728Y0151012D01*
X0135624Y0150899D01*
X0135518Y0150788D01*
X0135409Y0150680D01*
X0135297Y0150575D01*
X0135183Y0150474D01*
X0135065Y0150375D01*
X0134946Y0150279D01*
X0134824Y0150186D01*
X0134699Y0150097D01*
X0134572Y0150010D01*
X0134443Y0149928D01*
X0134312Y0149848D01*
X0134179Y0149772D01*
X0134044Y0149699D01*
X0133907Y0149630D01*
X0133768Y0149565D01*
X0133628Y0149503D01*
X0133486Y0149445D01*
X0133343Y0149390D01*
X0133198Y0149339D01*
X0133052Y0149292D01*
X0132905Y0149249D01*
X0132757Y0149210D01*
X0132608Y0149174D01*
X0132458Y0149143D01*
X0132307Y0149115D01*
X0132156Y0149091D01*
X0132003Y0149071D01*
X0131851Y0149055D01*
X0131698Y0149043D01*
X0131545Y0149035D01*
X0131392Y0149031D01*
X0131238Y0149031D01*
X0131085Y0149035D01*
X0130932Y0149043D01*
X0130779Y0149055D01*
X0130627Y0149071D01*
X0130474Y0149091D01*
X0130323Y0149115D01*
X0130172Y0149143D01*
X0130022Y0149174D01*
X0129873Y0149210D01*
X0129725Y0149249D01*
X0129578Y0149292D01*
X0129432Y0149339D01*
X0129287Y0149390D01*
X0129144Y0149445D01*
X0129002Y0149503D01*
X0128862Y0149565D01*
X0128723Y0149630D01*
X0128586Y0149699D01*
X0128451Y0149772D01*
X0128318Y0149848D01*
X0128187Y0149928D01*
X0128058Y0150010D01*
X0127931Y0150097D01*
X0127806Y0150186D01*
X0127684Y0150279D01*
X0127565Y0150375D01*
X0127447Y0150474D01*
X0127333Y0150575D01*
X0127221Y0150680D01*
X0127112Y0150788D01*
X0127006Y0150899D01*
X0126902Y0151012D01*
X0126802Y0151128D01*
X0126704Y0151246D01*
X0126610Y0151367D01*
X0126519Y0151490D01*
X0126431Y0151616D01*
X0126347Y0151744D01*
X0126265Y0151874D01*
X0126188Y0152006D01*
X0126113Y0152140D01*
X0126042Y0152276D01*
X0125975Y0152414D01*
X0125911Y0152554D01*
X0125851Y0152695D01*
X0125795Y0152837D01*
X0125742Y0152981D01*
X0125693Y0153127D01*
X0125648Y0153273D01*
X0125607Y0153421D01*
X0125570Y0153569D01*
X0125536Y0153719D01*
X0125506Y0153870D01*
X0125481Y0154021D01*
X0125459Y0154172D01*
X0125441Y0154325D01*
X0125427Y0154477D01*
X0125417Y0154630D01*
X0125411Y0154784D01*
X0125409Y0154937D01*
X0007299Y0154937D02*
X0007301Y0155090D01*
X0007307Y0155244D01*
X0007317Y0155397D01*
X0007331Y0155549D01*
X0007349Y0155702D01*
X0007371Y0155853D01*
X0007396Y0156004D01*
X0007426Y0156155D01*
X0007460Y0156305D01*
X0007497Y0156453D01*
X0007538Y0156601D01*
X0007583Y0156747D01*
X0007632Y0156893D01*
X0007685Y0157037D01*
X0007741Y0157179D01*
X0007801Y0157320D01*
X0007865Y0157460D01*
X0007932Y0157598D01*
X0008003Y0157734D01*
X0008078Y0157868D01*
X0008155Y0158000D01*
X0008237Y0158130D01*
X0008321Y0158258D01*
X0008409Y0158384D01*
X0008500Y0158507D01*
X0008594Y0158628D01*
X0008692Y0158746D01*
X0008792Y0158862D01*
X0008896Y0158975D01*
X0009002Y0159086D01*
X0009111Y0159194D01*
X0009223Y0159299D01*
X0009337Y0159400D01*
X0009455Y0159499D01*
X0009574Y0159595D01*
X0009696Y0159688D01*
X0009821Y0159777D01*
X0009948Y0159864D01*
X0010077Y0159946D01*
X0010208Y0160026D01*
X0010341Y0160102D01*
X0010476Y0160175D01*
X0010613Y0160244D01*
X0010752Y0160309D01*
X0010892Y0160371D01*
X0011034Y0160429D01*
X0011177Y0160484D01*
X0011322Y0160535D01*
X0011468Y0160582D01*
X0011615Y0160625D01*
X0011763Y0160664D01*
X0011912Y0160700D01*
X0012062Y0160731D01*
X0012213Y0160759D01*
X0012364Y0160783D01*
X0012517Y0160803D01*
X0012669Y0160819D01*
X0012822Y0160831D01*
X0012975Y0160839D01*
X0013128Y0160843D01*
X0013282Y0160843D01*
X0013435Y0160839D01*
X0013588Y0160831D01*
X0013741Y0160819D01*
X0013893Y0160803D01*
X0014046Y0160783D01*
X0014197Y0160759D01*
X0014348Y0160731D01*
X0014498Y0160700D01*
X0014647Y0160664D01*
X0014795Y0160625D01*
X0014942Y0160582D01*
X0015088Y0160535D01*
X0015233Y0160484D01*
X0015376Y0160429D01*
X0015518Y0160371D01*
X0015658Y0160309D01*
X0015797Y0160244D01*
X0015934Y0160175D01*
X0016069Y0160102D01*
X0016202Y0160026D01*
X0016333Y0159946D01*
X0016462Y0159864D01*
X0016589Y0159777D01*
X0016714Y0159688D01*
X0016836Y0159595D01*
X0016955Y0159499D01*
X0017073Y0159400D01*
X0017187Y0159299D01*
X0017299Y0159194D01*
X0017408Y0159086D01*
X0017514Y0158975D01*
X0017618Y0158862D01*
X0017718Y0158746D01*
X0017816Y0158628D01*
X0017910Y0158507D01*
X0018001Y0158384D01*
X0018089Y0158258D01*
X0018173Y0158130D01*
X0018255Y0158000D01*
X0018332Y0157868D01*
X0018407Y0157734D01*
X0018478Y0157598D01*
X0018545Y0157460D01*
X0018609Y0157320D01*
X0018669Y0157179D01*
X0018725Y0157037D01*
X0018778Y0156893D01*
X0018827Y0156747D01*
X0018872Y0156601D01*
X0018913Y0156453D01*
X0018950Y0156305D01*
X0018984Y0156155D01*
X0019014Y0156004D01*
X0019039Y0155853D01*
X0019061Y0155702D01*
X0019079Y0155549D01*
X0019093Y0155397D01*
X0019103Y0155244D01*
X0019109Y0155090D01*
X0019111Y0154937D01*
X0019109Y0154784D01*
X0019103Y0154630D01*
X0019093Y0154477D01*
X0019079Y0154325D01*
X0019061Y0154172D01*
X0019039Y0154021D01*
X0019014Y0153870D01*
X0018984Y0153719D01*
X0018950Y0153569D01*
X0018913Y0153421D01*
X0018872Y0153273D01*
X0018827Y0153127D01*
X0018778Y0152981D01*
X0018725Y0152837D01*
X0018669Y0152695D01*
X0018609Y0152554D01*
X0018545Y0152414D01*
X0018478Y0152276D01*
X0018407Y0152140D01*
X0018332Y0152006D01*
X0018255Y0151874D01*
X0018173Y0151744D01*
X0018089Y0151616D01*
X0018001Y0151490D01*
X0017910Y0151367D01*
X0017816Y0151246D01*
X0017718Y0151128D01*
X0017618Y0151012D01*
X0017514Y0150899D01*
X0017408Y0150788D01*
X0017299Y0150680D01*
X0017187Y0150575D01*
X0017073Y0150474D01*
X0016955Y0150375D01*
X0016836Y0150279D01*
X0016714Y0150186D01*
X0016589Y0150097D01*
X0016462Y0150010D01*
X0016333Y0149928D01*
X0016202Y0149848D01*
X0016069Y0149772D01*
X0015934Y0149699D01*
X0015797Y0149630D01*
X0015658Y0149565D01*
X0015518Y0149503D01*
X0015376Y0149445D01*
X0015233Y0149390D01*
X0015088Y0149339D01*
X0014942Y0149292D01*
X0014795Y0149249D01*
X0014647Y0149210D01*
X0014498Y0149174D01*
X0014348Y0149143D01*
X0014197Y0149115D01*
X0014046Y0149091D01*
X0013893Y0149071D01*
X0013741Y0149055D01*
X0013588Y0149043D01*
X0013435Y0149035D01*
X0013282Y0149031D01*
X0013128Y0149031D01*
X0012975Y0149035D01*
X0012822Y0149043D01*
X0012669Y0149055D01*
X0012517Y0149071D01*
X0012364Y0149091D01*
X0012213Y0149115D01*
X0012062Y0149143D01*
X0011912Y0149174D01*
X0011763Y0149210D01*
X0011615Y0149249D01*
X0011468Y0149292D01*
X0011322Y0149339D01*
X0011177Y0149390D01*
X0011034Y0149445D01*
X0010892Y0149503D01*
X0010752Y0149565D01*
X0010613Y0149630D01*
X0010476Y0149699D01*
X0010341Y0149772D01*
X0010208Y0149848D01*
X0010077Y0149928D01*
X0009948Y0150010D01*
X0009821Y0150097D01*
X0009696Y0150186D01*
X0009574Y0150279D01*
X0009455Y0150375D01*
X0009337Y0150474D01*
X0009223Y0150575D01*
X0009111Y0150680D01*
X0009002Y0150788D01*
X0008896Y0150899D01*
X0008792Y0151012D01*
X0008692Y0151128D01*
X0008594Y0151246D01*
X0008500Y0151367D01*
X0008409Y0151490D01*
X0008321Y0151616D01*
X0008237Y0151744D01*
X0008155Y0151874D01*
X0008078Y0152006D01*
X0008003Y0152140D01*
X0007932Y0152276D01*
X0007865Y0152414D01*
X0007801Y0152554D01*
X0007741Y0152695D01*
X0007685Y0152837D01*
X0007632Y0152981D01*
X0007583Y0153127D01*
X0007538Y0153273D01*
X0007497Y0153421D01*
X0007460Y0153569D01*
X0007426Y0153719D01*
X0007396Y0153870D01*
X0007371Y0154021D01*
X0007349Y0154172D01*
X0007331Y0154325D01*
X0007317Y0154477D01*
X0007307Y0154630D01*
X0007301Y0154784D01*
X0007299Y0154937D01*
D11*
X0064386Y0042339D03*
X0064386Y0031315D03*
D12*
X0076197Y0029543D03*
X0076197Y0036236D03*
X0084071Y0064976D03*
X0084071Y0071669D03*
D13*
X0071866Y0056512D03*
X0060843Y0056512D03*
D14*
X0050016Y0086039D03*
X0043323Y0086039D03*
X0096472Y0072260D03*
X0103165Y0072260D03*
X0104346Y0017142D03*
X0111039Y0017142D03*
D15*
X0074819Y0017142D03*
X0057890Y0017142D03*
D16*
X0019268Y0028953D03*
X0019268Y0038953D03*
X0009268Y0038953D03*
X0009268Y0048953D03*
X0009268Y0058953D03*
X0009268Y0068953D03*
X0009268Y0078953D03*
X0009268Y0088953D03*
X0009268Y0098953D03*
X0009268Y0108953D03*
X0009268Y0118953D03*
X0009268Y0128953D03*
X0009268Y0138953D03*
X0019268Y0138953D03*
X0028638Y0154937D03*
X0038638Y0154937D03*
X0048638Y0154937D03*
X0125252Y0138953D03*
X0135252Y0138953D03*
X0135252Y0128953D03*
X0135252Y0118953D03*
X0135252Y0108953D03*
X0135252Y0098953D03*
X0135252Y0088953D03*
X0135252Y0078953D03*
X0135252Y0068953D03*
X0135252Y0058953D03*
X0135252Y0048953D03*
X0135252Y0038953D03*
X0135252Y0028953D03*
X0125252Y0028953D03*
X0009268Y0028953D03*
D17*
X0087619Y0027727D03*
X0087619Y0036827D03*
X0087619Y0045927D03*
D18*
X0112020Y0036827D03*
D19*
X0079150Y0089976D03*
X0077181Y0089976D03*
X0075213Y0089976D03*
X0073244Y0089976D03*
X0071276Y0089976D03*
X0069307Y0089976D03*
X0067339Y0089976D03*
X0065370Y0089976D03*
X0063402Y0089976D03*
X0061433Y0089976D03*
X0059465Y0089976D03*
X0057496Y0089976D03*
X0057496Y0125409D03*
X0059465Y0125409D03*
X0061433Y0125409D03*
X0063402Y0125409D03*
X0065370Y0125409D03*
X0067339Y0125409D03*
X0069307Y0125409D03*
X0071276Y0125409D03*
X0073244Y0125409D03*
X0075213Y0125409D03*
X0077181Y0125409D03*
X0079150Y0125409D03*
D20*
X0086039Y0118520D03*
X0086039Y0116551D03*
X0086039Y0114583D03*
X0086039Y0112614D03*
X0086039Y0110646D03*
X0086039Y0108677D03*
X0086039Y0106709D03*
X0086039Y0104740D03*
X0086039Y0102772D03*
X0086039Y0100803D03*
X0086039Y0098835D03*
X0086039Y0096866D03*
X0050606Y0096866D03*
X0050606Y0098835D03*
X0050606Y0100803D03*
X0050606Y0102772D03*
X0050606Y0104740D03*
X0050606Y0106709D03*
X0050606Y0108677D03*
X0050606Y0110646D03*
X0050606Y0112614D03*
X0050606Y0114583D03*
X0050606Y0116551D03*
X0050606Y0118520D03*
D21*
X0035252Y0121472D03*
X0034858Y0135252D03*
X0091945Y0062417D03*
D22*
X0071079Y0074228D03*
X0066354Y0074228D03*
X0061630Y0074228D03*
D23*
X0045764Y0068323D03*
X0035764Y0068323D03*
D24*
X0076945Y0142063D03*
X0076945Y0152063D03*
X0086945Y0152063D03*
X0086945Y0142063D03*
X0096945Y0142063D03*
X0096945Y0152063D03*
X0106945Y0152063D03*
X0106945Y0142063D03*
D25*
X0096776Y0018520D02*
X0096776Y0015764D01*
X0094020Y0015764D01*
X0094020Y0018520D01*
X0096776Y0018520D01*
X0096776Y0016944D02*
X0094020Y0016944D01*
X0094020Y0018124D02*
X0096776Y0018124D01*
X0089870Y0018520D02*
X0089870Y0015764D01*
X0087114Y0015764D01*
X0087114Y0018520D01*
X0089870Y0018520D01*
X0089870Y0016944D02*
X0087114Y0016944D01*
X0087114Y0018124D02*
X0089870Y0018124D01*
D26*
X0087467Y0027575D02*
X0087619Y0027727D01*
X0076197Y0027575D02*
X0074622Y0027575D01*
X0109661Y0039185D02*
X0112020Y0036827D01*
X0113205Y0038012D01*
X0109661Y0052575D02*
X0109661Y0072260D01*
D27*
X0054543Y0089976D03*
D28*
X0084071Y0056512D03*
X0109661Y0072260D03*
D29*
X0099819Y0064386D02*
X0095882Y0068323D01*
X0095882Y0071669D01*
X0096472Y0072260D01*
X0091945Y0072260D01*
X0091945Y0062417D01*
X0091945Y0072260D02*
X0084661Y0072260D01*
X0084071Y0071669D01*
X0083480Y0072260D01*
X0080134Y0072260D01*
X0069307Y0083087D01*
X0069307Y0089976D01*
X0071276Y0089976D02*
X0071276Y0085055D01*
X0076197Y0080134D01*
X0080134Y0080134D01*
X0076197Y0084071D02*
X0073244Y0087024D01*
X0073244Y0089976D01*
X0057496Y0089976D02*
X0054543Y0089976D01*
X0050606Y0089976D02*
X0050606Y0096866D01*
X0086039Y0116551D02*
X0092535Y0116551D01*
X0094701Y0114386D01*
X0091354Y0118520D02*
X0093520Y0120685D01*
X0091354Y0118520D02*
X0086039Y0118520D01*
D30*
X0054543Y0089976D02*
X0050606Y0089976D01*
X0050606Y0086630D01*
X0050016Y0086039D01*
X0095398Y0017142D02*
X0104346Y0017142D01*
X0111039Y0017142D02*
X0111039Y0035846D01*
X0112020Y0036827D01*
X0111630Y0036437D01*
D31*
X0112020Y0036827D02*
X0087619Y0036827D01*
D32*
X0087467Y0027575D02*
X0076197Y0027575D01*
X0074819Y0027378D02*
X0074622Y0027575D01*
X0068126Y0027575D01*
X0064386Y0031315D01*
X0074819Y0027378D02*
X0074819Y0017142D01*
X0057890Y0017142D02*
X0032890Y0017142D01*
X0021079Y0028953D01*
X0019268Y0028953D01*
X0109661Y0039185D02*
X0109661Y0052575D01*
D33*
X0088008Y0052575D01*
X0084071Y0056512D01*
X0071866Y0056512D01*
X0076197Y0029543D02*
X0076197Y0027575D01*
X0103165Y0072260D02*
X0109661Y0072260D01*
D34*
X0099819Y0064386D03*
X0080134Y0080134D03*
X0076197Y0084071D03*
X0058874Y0085646D03*
X0058087Y0077378D03*
X0058480Y0103756D03*
X0074228Y0117535D03*
X0072260Y0130134D03*
X0090764Y0113205D03*
X0094701Y0114386D03*
X0093520Y0120685D03*
X0095882Y0127378D03*
X0103756Y0127378D03*
X0105724Y0115567D03*
X0123441Y0072260D03*
D35*
X0102575Y0093126D01*
X0083283Y0093126D01*
X0080528Y0095882D01*
X0076197Y0095882D01*
X0075213Y0094898D01*
X0075213Y0089976D01*
X0077181Y0089976D02*
X0077181Y0087024D01*
X0080134Y0084071D01*
X0103756Y0084071D01*
X0115567Y0072260D01*
X0115567Y0052575D01*
X0129189Y0038953D01*
X0135252Y0038953D01*
X0138732Y0035795D02*
X0138732Y0032110D01*
X0137911Y0032932D01*
X0136186Y0033646D01*
X0134318Y0033646D01*
X0132593Y0032932D01*
X0131273Y0031612D01*
X0130558Y0029886D01*
X0130558Y0028019D01*
X0131273Y0026294D01*
X0132593Y0024974D01*
X0134318Y0024259D01*
X0136186Y0024259D01*
X0137911Y0024974D01*
X0138732Y0025795D01*
X0138732Y0020353D01*
X0137639Y0021446D01*
X0135290Y0022802D01*
X0132671Y0023504D01*
X0129959Y0023504D01*
X0127340Y0022802D01*
X0124991Y0021446D01*
X0123074Y0019529D01*
X0121718Y0017180D01*
X0121016Y0014561D01*
X0121016Y0011849D01*
X0121718Y0009229D01*
X0123074Y0006881D01*
X0124167Y0005787D01*
X0020353Y0005787D01*
X0021446Y0006881D01*
X0022802Y0009229D01*
X0023504Y0011849D01*
X0023504Y0014561D01*
X0022802Y0017180D01*
X0021446Y0019529D01*
X0019529Y0021446D01*
X0017180Y0022802D01*
X0014561Y0023504D01*
X0011849Y0023504D01*
X0009229Y0022802D01*
X0006881Y0021446D01*
X0005787Y0020353D01*
X0005787Y0025795D01*
X0006609Y0024974D01*
X0008334Y0024259D01*
X0010201Y0024259D01*
X0011926Y0024974D01*
X0013247Y0026294D01*
X0013961Y0028019D01*
X0013961Y0029886D01*
X0013435Y0031158D01*
X0014961Y0032683D01*
X0016361Y0032683D01*
X0015289Y0031612D01*
X0014574Y0029886D01*
X0014574Y0028019D01*
X0015289Y0026294D01*
X0016609Y0024974D01*
X0018334Y0024259D01*
X0020201Y0024259D01*
X0020647Y0024444D01*
X0029928Y0015163D01*
X0030911Y0014180D01*
X0032195Y0013648D01*
X0054584Y0013648D01*
X0054978Y0013254D01*
X0060801Y0013254D01*
X0061383Y0013836D01*
X0061383Y0020447D01*
X0060801Y0021029D01*
X0054978Y0021029D01*
X0054584Y0020635D01*
X0034337Y0020635D01*
X0023058Y0031915D01*
X0022863Y0031995D01*
X0022175Y0032683D01*
X0030709Y0032683D01*
X0053149Y0055124D01*
X0053962Y0055937D01*
X0053962Y0071291D01*
X0057664Y0074994D01*
X0059074Y0074994D01*
X0059849Y0075768D01*
X0059849Y0069880D01*
X0060431Y0069298D01*
X0062829Y0069298D01*
X0063411Y0069880D01*
X0063411Y0077197D01*
X0064173Y0077959D01*
X0064173Y0074228D01*
X0064173Y0070108D01*
X0064268Y0069753D01*
X0064452Y0069436D01*
X0064711Y0069176D01*
X0065029Y0068993D01*
X0065383Y0068898D01*
X0066354Y0068898D01*
X0066354Y0074228D01*
X0066354Y0074228D01*
X0064173Y0074228D01*
X0066354Y0074228D01*
X0066354Y0074228D01*
X0066354Y0068898D01*
X0067325Y0068898D01*
X0067680Y0068993D01*
X0067997Y0069176D01*
X0068257Y0069436D01*
X0068440Y0069753D01*
X0068535Y0070108D01*
X0068535Y0074228D01*
X0066354Y0074228D01*
X0066354Y0074228D01*
X0066354Y0079559D01*
X0065773Y0079559D01*
X0066354Y0080140D01*
X0066936Y0079559D01*
X0066354Y0079559D01*
X0066354Y0074228D01*
X0066354Y0074228D01*
X0068535Y0074228D01*
X0068535Y0077959D01*
X0069298Y0077197D01*
X0069298Y0069880D01*
X0069880Y0069298D01*
X0072278Y0069298D01*
X0072860Y0069880D01*
X0072860Y0077421D01*
X0078640Y0071641D01*
X0079515Y0070766D01*
X0081109Y0070766D01*
X0081109Y0069092D01*
X0081691Y0068510D01*
X0081825Y0068510D01*
X0081564Y0068440D01*
X0081247Y0068257D01*
X0080987Y0067997D01*
X0080804Y0067680D01*
X0080709Y0067325D01*
X0080709Y0065370D01*
X0083677Y0065370D01*
X0083677Y0064583D01*
X0080709Y0064583D01*
X0080709Y0062628D01*
X0080804Y0062273D01*
X0080987Y0061955D01*
X0081247Y0061696D01*
X0081564Y0061512D01*
X0081919Y0061417D01*
X0083677Y0061417D01*
X0083677Y0064583D01*
X0084465Y0064583D01*
X0084465Y0065370D01*
X0087433Y0065370D01*
X0087433Y0067325D01*
X0087338Y0067680D01*
X0087155Y0067997D01*
X0086895Y0068257D01*
X0086577Y0068440D01*
X0086317Y0068510D01*
X0086451Y0068510D01*
X0087033Y0069092D01*
X0087033Y0070766D01*
X0090451Y0070766D01*
X0090451Y0065580D01*
X0089966Y0065379D01*
X0088983Y0064396D01*
X0088451Y0063112D01*
X0088451Y0061722D01*
X0088983Y0060438D01*
X0089966Y0059455D01*
X0091250Y0058924D01*
X0092640Y0058924D01*
X0093924Y0059455D01*
X0094907Y0060438D01*
X0095439Y0061722D01*
X0095439Y0063112D01*
X0094907Y0064396D01*
X0093924Y0065379D01*
X0093439Y0065580D01*
X0093439Y0069755D01*
X0093895Y0069298D01*
X0094388Y0069298D01*
X0094388Y0067704D01*
X0095263Y0066829D01*
X0097435Y0064658D01*
X0097435Y0063398D01*
X0098831Y0062002D01*
X0100806Y0062002D01*
X0102203Y0063398D01*
X0102203Y0065373D01*
X0100806Y0066770D01*
X0099547Y0066770D01*
X0097376Y0068942D01*
X0097376Y0069298D01*
X0099049Y0069298D01*
X0099631Y0069880D01*
X0099631Y0074640D01*
X0099049Y0075222D01*
X0093895Y0075222D01*
X0093313Y0074640D01*
X0093313Y0073754D01*
X0087033Y0073754D01*
X0087033Y0074246D01*
X0086451Y0074828D01*
X0081691Y0074828D01*
X0081109Y0074246D01*
X0081109Y0073754D01*
X0080753Y0073754D01*
X0070801Y0083705D01*
X0070801Y0086614D01*
X0071276Y0086614D01*
X0071750Y0086614D01*
X0071750Y0086405D01*
X0073813Y0084343D01*
X0073813Y0083083D01*
X0075209Y0081687D01*
X0077184Y0081687D01*
X0078581Y0083083D01*
X0078581Y0083662D01*
X0078746Y0083496D01*
X0079559Y0082683D01*
X0103181Y0082683D01*
X0110862Y0075003D01*
X0110257Y0075254D01*
X0109066Y0075254D01*
X0108100Y0074854D01*
X0106111Y0074854D01*
X0105742Y0075222D01*
X0100588Y0075222D01*
X0100006Y0074640D01*
X0100006Y0069880D01*
X0100588Y0069298D01*
X0105742Y0069298D01*
X0106111Y0069666D01*
X0106668Y0069666D01*
X0106668Y0055168D01*
X0089082Y0055168D01*
X0086610Y0057641D01*
X0086426Y0058085D01*
X0085644Y0058867D01*
X0084623Y0059290D01*
X0083518Y0059290D01*
X0083073Y0059105D01*
X0075616Y0059105D01*
X0075616Y0060073D01*
X0075034Y0060655D01*
X0068699Y0060655D01*
X0068117Y0060073D01*
X0068117Y0052951D01*
X0068699Y0052369D01*
X0075034Y0052369D01*
X0075616Y0052951D01*
X0075616Y0053918D01*
X0082997Y0053918D01*
X0085809Y0051106D01*
X0086539Y0050376D01*
X0087492Y0049981D01*
X0106168Y0049981D01*
X0106168Y0040620D01*
X0086864Y0040620D01*
X0085899Y0040220D01*
X0082807Y0040220D01*
X0082225Y0039638D01*
X0082225Y0034015D01*
X0082807Y0033433D01*
X0085899Y0033433D01*
X0086864Y0033033D01*
X0106695Y0033033D01*
X0106695Y0029329D01*
X0107277Y0028746D01*
X0109246Y0028746D01*
X0109246Y0020104D01*
X0108462Y0020104D01*
X0107880Y0019522D01*
X0107880Y0014762D01*
X0108462Y0014180D01*
X0113616Y0014180D01*
X0114198Y0014762D01*
X0114198Y0019522D01*
X0113616Y0020104D01*
X0112833Y0020104D01*
X0112833Y0028746D01*
X0116762Y0028746D01*
X0117344Y0029329D01*
X0117344Y0044325D01*
X0116762Y0044907D01*
X0113155Y0044907D01*
X0113155Y0053270D01*
X0112655Y0054477D01*
X0112655Y0072855D01*
X0112405Y0073460D01*
X0114180Y0071685D01*
X0114180Y0052000D01*
X0114992Y0051187D01*
X0127802Y0038378D01*
X0128614Y0037565D01*
X0130746Y0037565D01*
X0131273Y0036294D01*
X0132593Y0034974D01*
X0134318Y0034259D01*
X0136186Y0034259D01*
X0137911Y0034974D01*
X0138732Y0035795D01*
X0138732Y0035188D02*
X0138125Y0035188D01*
X0138732Y0034402D02*
X0136531Y0034402D01*
X0136259Y0033616D02*
X0138732Y0033616D01*
X0138732Y0032830D02*
X0138012Y0032830D01*
X0134245Y0033616D02*
X0127319Y0033616D01*
X0127207Y0033673D02*
X0127922Y0033309D01*
X0128570Y0032838D01*
X0129137Y0032271D01*
X0129608Y0031622D01*
X0129972Y0030908D01*
X0130220Y0030146D01*
X0130346Y0029354D01*
X0130346Y0029346D01*
X0125646Y0029346D01*
X0125646Y0028559D01*
X0130346Y0028559D01*
X0130346Y0028552D01*
X0130220Y0027760D01*
X0129972Y0026997D01*
X0129608Y0026283D01*
X0129137Y0025634D01*
X0128570Y0025067D01*
X0127922Y0024596D01*
X0127207Y0024232D01*
X0126445Y0023984D01*
X0125653Y0023859D01*
X0125646Y0023859D01*
X0125646Y0028559D01*
X0124858Y0028559D01*
X0120158Y0028559D01*
X0120158Y0028552D01*
X0120284Y0027760D01*
X0120531Y0026997D01*
X0120895Y0026283D01*
X0121367Y0025634D01*
X0121934Y0025067D01*
X0122582Y0024596D01*
X0123297Y0024232D01*
X0124059Y0023984D01*
X0124851Y0023859D01*
X0124858Y0023859D01*
X0124858Y0028559D01*
X0124858Y0029346D01*
X0120158Y0029346D01*
X0120158Y0029354D01*
X0120284Y0030146D01*
X0120531Y0030908D01*
X0120895Y0031622D01*
X0121367Y0032271D01*
X0121934Y0032838D01*
X0122582Y0033309D01*
X0123297Y0033673D01*
X0124059Y0033921D01*
X0124851Y0034046D01*
X0124858Y0034046D01*
X0124858Y0029347D01*
X0125646Y0029347D01*
X0125646Y0034046D01*
X0125653Y0034046D01*
X0126445Y0033921D01*
X0127207Y0033673D01*
X0128578Y0032830D02*
X0132492Y0032830D01*
X0131706Y0032044D02*
X0129302Y0032044D01*
X0129794Y0031258D02*
X0131127Y0031258D01*
X0130801Y0030472D02*
X0130114Y0030472D01*
X0130293Y0029687D02*
X0130558Y0029687D01*
X0130558Y0028901D02*
X0125646Y0028901D01*
X0125646Y0029687D02*
X0124858Y0029687D01*
X0124858Y0030472D02*
X0125646Y0030472D01*
X0125646Y0031258D02*
X0124858Y0031258D01*
X0124858Y0032044D02*
X0125646Y0032044D01*
X0125646Y0032830D02*
X0124858Y0032830D01*
X0124858Y0033616D02*
X0125646Y0033616D01*
X0123185Y0033616D02*
X0117344Y0033616D01*
X0117344Y0032830D02*
X0121926Y0032830D01*
X0121202Y0032044D02*
X0117344Y0032044D01*
X0117344Y0031258D02*
X0120710Y0031258D01*
X0120390Y0030472D02*
X0117344Y0030472D01*
X0117344Y0029687D02*
X0120211Y0029687D01*
X0120227Y0028115D02*
X0112833Y0028115D01*
X0112833Y0027329D02*
X0120424Y0027329D01*
X0120763Y0026543D02*
X0112833Y0026543D01*
X0112833Y0025757D02*
X0121278Y0025757D01*
X0122066Y0024971D02*
X0112833Y0024971D01*
X0112833Y0024185D02*
X0123441Y0024185D01*
X0124858Y0024185D02*
X0125646Y0024185D01*
X0125646Y0024971D02*
X0124858Y0024971D01*
X0124858Y0025757D02*
X0125646Y0025757D01*
X0125646Y0026543D02*
X0124858Y0026543D01*
X0124858Y0027329D02*
X0125646Y0027329D01*
X0125646Y0028115D02*
X0124858Y0028115D01*
X0124858Y0028901D02*
X0116916Y0028901D01*
X0117344Y0034402D02*
X0133973Y0034402D01*
X0132379Y0035188D02*
X0117344Y0035188D01*
X0117344Y0035974D02*
X0131593Y0035974D01*
X0131080Y0036760D02*
X0117344Y0036760D01*
X0117344Y0037546D02*
X0130754Y0037546D01*
X0127848Y0038332D02*
X0117344Y0038332D01*
X0117344Y0039118D02*
X0127062Y0039118D01*
X0126276Y0039903D02*
X0117344Y0039903D01*
X0117344Y0040689D02*
X0125490Y0040689D01*
X0124704Y0041475D02*
X0117344Y0041475D01*
X0117344Y0042261D02*
X0123918Y0042261D01*
X0123133Y0043047D02*
X0117344Y0043047D01*
X0117344Y0043833D02*
X0122347Y0043833D01*
X0121561Y0044619D02*
X0117050Y0044619D01*
X0119203Y0046977D02*
X0113155Y0046977D01*
X0113155Y0047763D02*
X0118417Y0047763D01*
X0117631Y0048548D02*
X0113155Y0048548D01*
X0113155Y0049334D02*
X0116845Y0049334D01*
X0116059Y0050120D02*
X0113155Y0050120D01*
X0113155Y0050906D02*
X0115273Y0050906D01*
X0114488Y0051692D02*
X0113155Y0051692D01*
X0113155Y0052478D02*
X0114180Y0052478D01*
X0114180Y0053264D02*
X0113155Y0053264D01*
X0112832Y0054050D02*
X0114180Y0054050D01*
X0114180Y0054836D02*
X0112655Y0054836D01*
X0112655Y0055622D02*
X0114180Y0055622D01*
X0114180Y0056408D02*
X0112655Y0056408D01*
X0112655Y0057194D02*
X0114180Y0057194D01*
X0114180Y0057979D02*
X0112655Y0057979D01*
X0112655Y0058765D02*
X0114180Y0058765D01*
X0114180Y0059551D02*
X0112655Y0059551D01*
X0112655Y0060337D02*
X0114180Y0060337D01*
X0114180Y0061123D02*
X0112655Y0061123D01*
X0112655Y0061909D02*
X0114180Y0061909D01*
X0114180Y0062695D02*
X0112655Y0062695D01*
X0112655Y0063481D02*
X0114180Y0063481D01*
X0114180Y0064267D02*
X0112655Y0064267D01*
X0112655Y0065053D02*
X0114180Y0065053D01*
X0114180Y0065839D02*
X0112655Y0065839D01*
X0112655Y0066624D02*
X0114180Y0066624D01*
X0114180Y0067410D02*
X0112655Y0067410D01*
X0112655Y0068196D02*
X0114180Y0068196D01*
X0114180Y0068982D02*
X0112655Y0068982D01*
X0112655Y0069768D02*
X0114180Y0069768D01*
X0114180Y0070554D02*
X0112655Y0070554D01*
X0112655Y0071340D02*
X0114180Y0071340D01*
X0113739Y0072126D02*
X0112655Y0072126D01*
X0112632Y0072912D02*
X0112953Y0072912D01*
X0110595Y0075270D02*
X0079237Y0075270D01*
X0078451Y0076055D02*
X0109809Y0076055D01*
X0109023Y0076841D02*
X0077665Y0076841D01*
X0076879Y0077627D02*
X0108237Y0077627D01*
X0107452Y0078413D02*
X0076093Y0078413D01*
X0075307Y0079199D02*
X0106666Y0079199D01*
X0105880Y0079985D02*
X0074521Y0079985D01*
X0073735Y0080771D02*
X0105094Y0080771D01*
X0104308Y0081557D02*
X0072949Y0081557D01*
X0072163Y0082343D02*
X0074553Y0082343D01*
X0073813Y0083129D02*
X0071377Y0083129D01*
X0070801Y0083915D02*
X0073813Y0083915D01*
X0073455Y0084700D02*
X0070801Y0084700D01*
X0070801Y0085486D02*
X0072669Y0085486D01*
X0071883Y0086272D02*
X0070801Y0086272D01*
X0071276Y0086614D02*
X0071276Y0089976D01*
X0071276Y0086614D01*
X0071276Y0087058D02*
X0071276Y0087058D01*
X0071276Y0087844D02*
X0071276Y0087844D01*
X0071276Y0088630D02*
X0071276Y0088630D01*
X0071276Y0089416D02*
X0071276Y0089416D01*
X0071276Y0089976D02*
X0071276Y0089976D01*
X0071276Y0089977D02*
X0071276Y0089977D01*
X0071276Y0093339D01*
X0071853Y0093339D01*
X0072207Y0093244D01*
X0072525Y0093060D01*
X0072647Y0092939D01*
X0073825Y0092939D01*
X0073825Y0095472D01*
X0074809Y0096457D01*
X0075622Y0097269D01*
X0081102Y0097269D01*
X0083858Y0094513D01*
X0103149Y0094513D01*
X0123019Y0074644D01*
X0123032Y0074644D01*
X0102197Y0095479D01*
X0083659Y0095479D01*
X0083077Y0096061D01*
X0083077Y0097671D01*
X0083256Y0097850D01*
X0083077Y0098029D01*
X0083077Y0099640D01*
X0083256Y0099819D01*
X0083077Y0099998D01*
X0083077Y0101608D01*
X0083256Y0101787D01*
X0083077Y0101966D01*
X0083077Y0103577D01*
X0083256Y0103756D01*
X0083077Y0103935D01*
X0083077Y0105545D01*
X0083256Y0105724D01*
X0083077Y0105903D01*
X0083077Y0107514D01*
X0083256Y0107693D01*
X0083077Y0107872D01*
X0083077Y0109482D01*
X0083256Y0109661D01*
X0083077Y0109840D01*
X0083077Y0111451D01*
X0083256Y0111630D01*
X0083077Y0111809D01*
X0083077Y0113195D01*
X0078575Y0113195D01*
X0077591Y0114180D01*
X0076778Y0114992D01*
X0076778Y0118110D01*
X0086620Y0127953D01*
X0087433Y0128765D01*
X0093897Y0128765D01*
X0094894Y0129762D01*
X0096869Y0129762D01*
X0098266Y0128366D01*
X0098266Y0126390D01*
X0096869Y0124994D01*
X0094894Y0124994D01*
X0093897Y0125991D01*
X0088583Y0125991D01*
X0079553Y0116961D01*
X0079553Y0116142D01*
X0079724Y0115970D01*
X0082678Y0115970D01*
X0082677Y0115974D01*
X0082677Y0116551D01*
X0086039Y0116551D01*
X0086039Y0116551D01*
X0082677Y0116551D01*
X0082677Y0117128D01*
X0082772Y0117483D01*
X0082956Y0117801D01*
X0083077Y0117922D01*
X0083077Y0119325D01*
X0083659Y0119907D01*
X0085314Y0119907D01*
X0085421Y0120013D01*
X0090736Y0120013D01*
X0091135Y0120413D01*
X0091135Y0121673D01*
X0092532Y0123069D01*
X0094507Y0123069D01*
X0095904Y0121673D01*
X0095904Y0119697D01*
X0094507Y0118301D01*
X0093248Y0118301D01*
X0091973Y0117026D01*
X0089402Y0117026D01*
X0089402Y0116551D01*
X0086039Y0116551D01*
X0086039Y0116551D01*
X0089402Y0116551D01*
X0089402Y0115974D01*
X0089307Y0115620D01*
X0089123Y0115302D01*
X0089002Y0115180D01*
X0089002Y0114814D01*
X0089776Y0115589D01*
X0091751Y0115589D01*
X0093148Y0114192D01*
X0093148Y0112217D01*
X0092964Y0112033D01*
X0098260Y0112033D01*
X0098431Y0112205D01*
X0098431Y0137369D01*
X0095001Y0137369D01*
X0093332Y0139038D01*
X0093332Y0138614D01*
X0092520Y0137802D01*
X0088583Y0133865D01*
X0084646Y0133865D01*
X0080537Y0129756D01*
X0080537Y0123029D01*
X0079955Y0122447D01*
X0078344Y0122447D01*
X0078165Y0122626D01*
X0077986Y0122447D01*
X0076376Y0122447D01*
X0076197Y0122626D01*
X0076018Y0122447D01*
X0074631Y0122447D01*
X0074631Y0119920D01*
X0075216Y0119920D01*
X0076613Y0118523D01*
X0076613Y0116548D01*
X0075216Y0115151D01*
X0073241Y0115151D01*
X0071844Y0116548D01*
X0071844Y0118523D01*
X0071857Y0118536D01*
X0071857Y0122447D01*
X0070470Y0122447D01*
X0070291Y0122626D01*
X0070112Y0122447D01*
X0068502Y0122447D01*
X0068323Y0122626D01*
X0068144Y0122447D01*
X0066533Y0122447D01*
X0066354Y0122626D01*
X0066175Y0122447D01*
X0064565Y0122447D01*
X0064386Y0122626D01*
X0064207Y0122447D01*
X0062596Y0122447D01*
X0062417Y0122626D01*
X0062238Y0122447D01*
X0060628Y0122447D01*
X0060449Y0122626D01*
X0060270Y0122447D01*
X0058659Y0122447D01*
X0058480Y0122626D01*
X0058301Y0122447D01*
X0056691Y0122447D01*
X0056109Y0123029D01*
X0056109Y0124835D01*
X0054953Y0125991D01*
X0018268Y0125991D01*
X0013435Y0121158D01*
X0013961Y0119886D01*
X0013961Y0118019D01*
X0013247Y0116294D01*
X0011926Y0114974D01*
X0010201Y0114259D01*
X0008334Y0114259D01*
X0006609Y0114974D01*
X0005787Y0115795D01*
X0005787Y0112110D01*
X0006609Y0112932D01*
X0008334Y0113646D01*
X0010201Y0113646D01*
X0011926Y0112932D01*
X0013247Y0111612D01*
X0013773Y0110340D01*
X0017827Y0110340D01*
X0025425Y0117939D01*
X0047644Y0117939D01*
X0047644Y0119325D01*
X0047742Y0119422D01*
X0047079Y0120085D01*
X0038459Y0120085D01*
X0038214Y0119493D01*
X0037231Y0118511D01*
X0035947Y0117979D01*
X0034557Y0117979D01*
X0033273Y0118511D01*
X0032290Y0119493D01*
X0031758Y0120777D01*
X0031758Y0122167D01*
X0032290Y0123451D01*
X0033273Y0124434D01*
X0034557Y0124966D01*
X0035947Y0124966D01*
X0037231Y0124434D01*
X0038214Y0123451D01*
X0038459Y0122860D01*
X0048228Y0122860D01*
X0051181Y0119907D01*
X0052986Y0119907D01*
X0053568Y0119325D01*
X0053568Y0117714D01*
X0053390Y0117535D01*
X0053568Y0117356D01*
X0053568Y0115746D01*
X0053390Y0115567D01*
X0053568Y0115388D01*
X0053568Y0113777D01*
X0053390Y0113598D01*
X0053568Y0113419D01*
X0053568Y0111809D01*
X0053390Y0111630D01*
X0053568Y0111451D01*
X0053568Y0109840D01*
X0053390Y0109661D01*
X0053568Y0109482D01*
X0053568Y0107872D01*
X0053390Y0107693D01*
X0053568Y0107514D01*
X0053568Y0106128D01*
X0057480Y0106128D01*
X0057493Y0106140D01*
X0059468Y0106140D01*
X0060865Y0104743D01*
X0060865Y0102768D01*
X0059468Y0101372D01*
X0057493Y0101372D01*
X0056096Y0102768D01*
X0056096Y0103353D01*
X0053568Y0103353D01*
X0053568Y0101966D01*
X0053390Y0101787D01*
X0053568Y0101608D01*
X0053568Y0100206D01*
X0053690Y0100084D01*
X0053874Y0099766D01*
X0053968Y0099412D01*
X0053968Y0098835D01*
X0050606Y0098835D01*
X0050606Y0098835D01*
X0047244Y0098835D01*
X0047244Y0099412D01*
X0047245Y0099416D01*
X0042323Y0099416D01*
X0038214Y0095307D01*
X0038214Y0079559D01*
X0037401Y0078746D01*
X0030340Y0071685D01*
X0030340Y0052000D01*
X0021747Y0043407D01*
X0021937Y0043309D01*
X0022586Y0042838D01*
X0023153Y0042271D01*
X0023624Y0041622D01*
X0023988Y0040908D01*
X0024236Y0040146D01*
X0024361Y0039354D01*
X0024361Y0039346D01*
X0019661Y0039346D01*
X0019661Y0038559D01*
X0024361Y0038559D01*
X0024361Y0038552D01*
X0024236Y0037760D01*
X0023988Y0036997D01*
X0023624Y0036283D01*
X0023153Y0035634D01*
X0022977Y0035458D01*
X0029559Y0035458D01*
X0051187Y0057086D01*
X0051187Y0072441D01*
X0052000Y0073254D01*
X0055702Y0076956D01*
X0055702Y0078366D01*
X0056083Y0078746D01*
X0053149Y0078746D01*
X0047151Y0072748D01*
X0047151Y0072396D01*
X0048196Y0071963D01*
X0049404Y0070755D01*
X0050057Y0069177D01*
X0050057Y0067469D01*
X0049404Y0065891D01*
X0048196Y0064683D01*
X0046618Y0064029D01*
X0044910Y0064029D01*
X0043332Y0064683D01*
X0042124Y0065891D01*
X0041470Y0067469D01*
X0041470Y0069177D01*
X0042124Y0070755D01*
X0043332Y0071963D01*
X0044376Y0072396D01*
X0044376Y0073898D01*
X0045189Y0074710D01*
X0051194Y0080715D01*
X0051181Y0080715D01*
X0039936Y0069470D01*
X0040057Y0069177D01*
X0040057Y0067469D01*
X0039404Y0065891D01*
X0038196Y0064683D01*
X0036618Y0064029D01*
X0034910Y0064029D01*
X0033332Y0064683D01*
X0032124Y0065891D01*
X0031470Y0067469D01*
X0031470Y0069177D01*
X0032124Y0070755D01*
X0033332Y0071963D01*
X0034910Y0072617D01*
X0036618Y0072617D01*
X0038196Y0071963D01*
X0038350Y0071808D01*
X0049619Y0083077D01*
X0047439Y0083077D01*
X0046857Y0083659D01*
X0046857Y0083793D01*
X0046787Y0083533D01*
X0046603Y0083215D01*
X0046344Y0082956D01*
X0046026Y0082772D01*
X0045672Y0082677D01*
X0043716Y0082677D01*
X0043716Y0085646D01*
X0042929Y0085646D01*
X0039764Y0085646D01*
X0039764Y0083887D01*
X0039859Y0083533D01*
X0040042Y0083215D01*
X0040302Y0082956D01*
X0040620Y0082772D01*
X0040974Y0082677D01*
X0042929Y0082677D01*
X0042929Y0085646D01*
X0042929Y0086433D01*
X0039764Y0086433D01*
X0039764Y0088191D01*
X0039859Y0088546D01*
X0040042Y0088864D01*
X0040302Y0089123D01*
X0040620Y0089307D01*
X0040974Y0089402D01*
X0042929Y0089402D01*
X0042929Y0086433D01*
X0043716Y0086433D01*
X0043716Y0089402D01*
X0045672Y0089402D01*
X0046026Y0089307D01*
X0046344Y0089123D01*
X0046603Y0088864D01*
X0046787Y0088546D01*
X0046857Y0088285D01*
X0046857Y0088419D01*
X0047439Y0089002D01*
X0048813Y0089002D01*
X0048813Y0090719D01*
X0049113Y0091019D01*
X0049113Y0095479D01*
X0048226Y0095479D01*
X0047644Y0096061D01*
X0047644Y0097464D01*
X0047523Y0097585D01*
X0047339Y0097903D01*
X0047244Y0098257D01*
X0047244Y0098835D01*
X0050606Y0098835D01*
X0050606Y0098835D01*
X0053968Y0098835D01*
X0053968Y0098257D01*
X0053874Y0097903D01*
X0053690Y0097585D01*
X0053568Y0097464D01*
X0053568Y0096061D01*
X0052986Y0095479D01*
X0052100Y0095479D01*
X0052100Y0091770D01*
X0052548Y0091770D01*
X0053025Y0092248D01*
X0054010Y0092656D01*
X0055076Y0092656D01*
X0056061Y0092248D01*
X0056109Y0092200D01*
X0056109Y0092356D01*
X0056691Y0092939D01*
X0058301Y0092939D01*
X0058480Y0092760D01*
X0058659Y0092939D01*
X0060270Y0092939D01*
X0060449Y0092760D01*
X0060628Y0092939D01*
X0062238Y0092939D01*
X0062417Y0092760D01*
X0062596Y0092939D01*
X0064207Y0092939D01*
X0064386Y0092760D01*
X0064565Y0092939D01*
X0066175Y0092939D01*
X0066354Y0092760D01*
X0066533Y0092939D01*
X0068144Y0092939D01*
X0068323Y0092760D01*
X0068502Y0092939D01*
X0069905Y0092939D01*
X0070026Y0093060D01*
X0070344Y0093244D01*
X0070698Y0093339D01*
X0071276Y0093339D01*
X0071276Y0089977D01*
X0071276Y0090202D02*
X0071276Y0090202D01*
X0071276Y0090988D02*
X0071276Y0090988D01*
X0071276Y0091774D02*
X0071276Y0091774D01*
X0071276Y0092560D02*
X0071276Y0092560D01*
X0073825Y0093346D02*
X0052100Y0093346D01*
X0052100Y0094131D02*
X0073825Y0094131D01*
X0073825Y0094917D02*
X0052100Y0094917D01*
X0053211Y0095703D02*
X0074056Y0095703D01*
X0074842Y0096489D02*
X0053568Y0096489D01*
X0053568Y0097275D02*
X0083077Y0097275D01*
X0083077Y0096489D02*
X0081882Y0096489D01*
X0082668Y0095703D02*
X0083435Y0095703D01*
X0083454Y0094917D02*
X0102758Y0094917D01*
X0103531Y0094131D02*
X0103544Y0094131D01*
X0104317Y0093346D02*
X0104330Y0093346D01*
X0105103Y0092560D02*
X0105116Y0092560D01*
X0105889Y0091774D02*
X0105902Y0091774D01*
X0106675Y0090988D02*
X0106688Y0090988D01*
X0107461Y0090202D02*
X0107474Y0090202D01*
X0108247Y0089416D02*
X0108260Y0089416D01*
X0109033Y0088630D02*
X0109046Y0088630D01*
X0109819Y0087844D02*
X0109832Y0087844D01*
X0110605Y0087058D02*
X0110617Y0087058D01*
X0111391Y0086272D02*
X0111403Y0086272D01*
X0112176Y0085486D02*
X0112189Y0085486D01*
X0112962Y0084700D02*
X0112975Y0084700D01*
X0113748Y0083915D02*
X0113761Y0083915D01*
X0114534Y0083129D02*
X0114547Y0083129D01*
X0115320Y0082343D02*
X0115333Y0082343D01*
X0116106Y0081557D02*
X0116119Y0081557D01*
X0116892Y0080771D02*
X0116905Y0080771D01*
X0117678Y0079985D02*
X0117691Y0079985D01*
X0118464Y0079199D02*
X0118477Y0079199D01*
X0119250Y0078413D02*
X0119263Y0078413D01*
X0120036Y0077627D02*
X0120048Y0077627D01*
X0120822Y0076841D02*
X0120834Y0076841D01*
X0121607Y0076055D02*
X0121620Y0076055D01*
X0122393Y0075270D02*
X0122406Y0075270D01*
X0119504Y0072260D02*
X0119504Y0060449D01*
X0131000Y0048953D01*
X0135252Y0048953D01*
X0135252Y0058953D02*
X0129346Y0064858D01*
X0129346Y0070291D01*
X0102772Y0096866D01*
X0086039Y0096866D01*
X0086039Y0098835D02*
X0105370Y0098835D01*
X0135252Y0068953D01*
X0135252Y0078953D02*
X0128559Y0078953D01*
X0106709Y0100803D01*
X0086039Y0100803D01*
X0086039Y0102772D02*
X0108677Y0102772D01*
X0122496Y0088953D01*
X0135252Y0088953D01*
X0135252Y0098953D02*
X0116433Y0098953D01*
X0115567Y0099819D01*
X0110646Y0104740D01*
X0086039Y0104740D01*
X0086039Y0106709D02*
X0133008Y0106709D01*
X0135252Y0108953D01*
X0128902Y0114565D02*
X0122826Y0114565D01*
X0122441Y0114180D02*
X0133047Y0124786D01*
X0134318Y0124259D01*
X0136186Y0124259D01*
X0137911Y0124974D01*
X0138732Y0125795D01*
X0138732Y0122110D01*
X0137911Y0122932D01*
X0136186Y0123646D01*
X0134318Y0123646D01*
X0132593Y0122932D01*
X0131273Y0121612D01*
X0130558Y0119886D01*
X0130558Y0118019D01*
X0131085Y0116748D01*
X0124402Y0110065D01*
X0100216Y0110065D01*
X0100394Y0110243D01*
X0101206Y0111055D01*
X0101206Y0139687D01*
X0101639Y0140119D01*
X0101639Y0144007D01*
X0098889Y0146757D01*
X0095001Y0146757D01*
X0093332Y0145088D01*
X0093332Y0146488D01*
X0094607Y0147763D01*
X0095001Y0147369D01*
X0098889Y0147369D01*
X0101639Y0150119D01*
X0101639Y0154007D01*
X0098889Y0156757D01*
X0095001Y0156757D01*
X0092251Y0154007D01*
X0092251Y0150119D01*
X0092645Y0149725D01*
X0091370Y0148450D01*
X0090557Y0147638D01*
X0090557Y0145088D01*
X0088889Y0146757D01*
X0085001Y0146757D01*
X0083490Y0145246D01*
X0083490Y0146646D01*
X0084607Y0147763D01*
X0085001Y0147369D01*
X0088889Y0147369D01*
X0091639Y0150119D01*
X0091639Y0154007D01*
X0088889Y0156757D01*
X0085001Y0156757D01*
X0082251Y0154007D01*
X0082251Y0150119D01*
X0082645Y0149725D01*
X0080715Y0147795D01*
X0080715Y0144931D01*
X0078889Y0146757D01*
X0075001Y0146757D01*
X0072251Y0144007D01*
X0072251Y0140119D01*
X0075001Y0137369D01*
X0078889Y0137369D01*
X0080715Y0139195D01*
X0080715Y0137795D01*
X0076197Y0133277D01*
X0069710Y0139764D01*
X0069710Y0146488D01*
X0072796Y0149574D01*
X0075001Y0147369D01*
X0078889Y0147369D01*
X0081639Y0150119D01*
X0081639Y0154007D01*
X0078889Y0156757D01*
X0075001Y0156757D01*
X0072251Y0154007D01*
X0072251Y0152953D01*
X0071935Y0152638D01*
X0066935Y0147638D01*
X0066935Y0138614D01*
X0067748Y0137802D01*
X0073032Y0132518D01*
X0071272Y0132518D01*
X0070694Y0131940D01*
X0070694Y0134842D01*
X0052805Y0152732D01*
X0053331Y0154003D01*
X0053331Y0155871D01*
X0052617Y0157596D01*
X0051297Y0158916D01*
X0049571Y0159631D01*
X0047704Y0159631D01*
X0045979Y0158916D01*
X0044659Y0157596D01*
X0043944Y0155871D01*
X0043944Y0154003D01*
X0044659Y0152278D01*
X0045979Y0150958D01*
X0047704Y0150243D01*
X0049571Y0150243D01*
X0050843Y0150770D01*
X0067920Y0133693D01*
X0067920Y0133680D01*
X0053962Y0147638D01*
X0053149Y0148450D01*
X0045275Y0148450D01*
X0042032Y0151694D01*
X0042617Y0152278D01*
X0043331Y0154003D01*
X0043331Y0155871D01*
X0042617Y0157596D01*
X0041297Y0158916D01*
X0039571Y0159631D01*
X0037704Y0159631D01*
X0035979Y0158916D01*
X0034659Y0157596D01*
X0033944Y0155871D01*
X0033944Y0154003D01*
X0034659Y0152278D01*
X0035979Y0150958D01*
X0037704Y0150243D01*
X0039558Y0150243D01*
X0044126Y0145676D01*
X0052000Y0145676D01*
X0052375Y0145301D01*
X0036614Y0145301D01*
X0031056Y0150858D01*
X0031297Y0150958D01*
X0032617Y0152278D01*
X0033331Y0154003D01*
X0033331Y0155871D01*
X0032617Y0157596D01*
X0031297Y0158916D01*
X0029571Y0159631D01*
X0027704Y0159631D01*
X0025979Y0158916D01*
X0024659Y0157596D01*
X0023944Y0155871D01*
X0023944Y0154003D01*
X0024659Y0152278D01*
X0025979Y0150958D01*
X0027704Y0150243D01*
X0027747Y0150243D01*
X0035465Y0142526D01*
X0052000Y0142526D01*
X0052375Y0142151D01*
X0029953Y0142151D01*
X0020504Y0132702D01*
X0017480Y0132702D01*
X0013435Y0136748D01*
X0013961Y0138019D01*
X0013961Y0139886D01*
X0013247Y0141612D01*
X0011926Y0142932D01*
X0010201Y0143646D01*
X0008334Y0143646D01*
X0006609Y0142932D01*
X0005787Y0142110D01*
X0005787Y0147789D01*
X0006881Y0146696D01*
X0009229Y0145340D01*
X0011849Y0144638D01*
X0014561Y0144638D01*
X0017180Y0145340D01*
X0019529Y0146696D01*
X0021446Y0148613D01*
X0022802Y0150962D01*
X0023504Y0153581D01*
X0023504Y0156293D01*
X0022802Y0158912D01*
X0021446Y0161261D01*
X0020353Y0162354D01*
X0124167Y0162354D01*
X0123074Y0161261D01*
X0121718Y0158912D01*
X0121016Y0156293D01*
X0121016Y0153581D01*
X0121718Y0150962D01*
X0123074Y0148613D01*
X0124991Y0146696D01*
X0127340Y0145340D01*
X0129959Y0144638D01*
X0132671Y0144638D01*
X0135290Y0145340D01*
X0137639Y0146696D01*
X0138732Y0147789D01*
X0138732Y0142110D01*
X0137911Y0142932D01*
X0136186Y0143646D01*
X0134318Y0143646D01*
X0132593Y0142932D01*
X0131273Y0141612D01*
X0130558Y0139886D01*
X0130558Y0138019D01*
X0131085Y0136748D01*
X0123102Y0128765D01*
X0105740Y0128765D01*
X0104743Y0129762D01*
X0102768Y0129762D01*
X0101372Y0128366D01*
X0101372Y0126390D01*
X0102768Y0124994D01*
X0104743Y0124994D01*
X0105740Y0125991D01*
X0124252Y0125991D01*
X0133047Y0134786D01*
X0134318Y0134259D01*
X0136186Y0134259D01*
X0137911Y0134974D01*
X0138732Y0135795D01*
X0138732Y0132110D01*
X0137911Y0132932D01*
X0136186Y0133646D01*
X0134318Y0133646D01*
X0132593Y0132932D01*
X0131273Y0131612D01*
X0130558Y0129886D01*
X0130558Y0128019D01*
X0131085Y0126748D01*
X0121291Y0116954D01*
X0107709Y0116954D01*
X0106712Y0117951D01*
X0104737Y0117951D01*
X0103340Y0116555D01*
X0103340Y0114579D01*
X0104737Y0113183D01*
X0106712Y0113183D01*
X0107709Y0114180D01*
X0122441Y0114180D01*
X0121866Y0115567D02*
X0135252Y0128953D01*
X0138505Y0125568D02*
X0138732Y0125568D01*
X0138732Y0124782D02*
X0137448Y0124782D01*
X0138732Y0123996D02*
X0132257Y0123996D01*
X0131471Y0123210D02*
X0133265Y0123210D01*
X0132086Y0122424D02*
X0130686Y0122424D01*
X0131300Y0121638D02*
X0129900Y0121638D01*
X0129114Y0120852D02*
X0130958Y0120852D01*
X0130633Y0120067D02*
X0128328Y0120067D01*
X0127542Y0119281D02*
X0130558Y0119281D01*
X0130558Y0118495D02*
X0126756Y0118495D01*
X0125970Y0117709D02*
X0130687Y0117709D01*
X0131012Y0116923D02*
X0125184Y0116923D01*
X0124398Y0116137D02*
X0130474Y0116137D01*
X0129688Y0115351D02*
X0123612Y0115351D01*
X0121866Y0115567D02*
X0105724Y0115567D01*
X0104140Y0113779D02*
X0101206Y0113779D01*
X0101206Y0112993D02*
X0127330Y0112993D01*
X0126545Y0112207D02*
X0101206Y0112207D01*
X0101206Y0111422D02*
X0125759Y0111422D01*
X0124973Y0110636D02*
X0100787Y0110636D01*
X0099819Y0111630D02*
X0099819Y0139189D01*
X0096945Y0142063D01*
X0100430Y0145216D02*
X0103460Y0145216D01*
X0104246Y0146002D02*
X0099644Y0146002D01*
X0099093Y0147573D02*
X0104231Y0147573D01*
X0104835Y0146969D02*
X0106551Y0146969D01*
X0106551Y0151669D01*
X0107339Y0151669D01*
X0107339Y0152457D01*
X0112039Y0152457D01*
X0112039Y0154173D01*
X0109055Y0157157D01*
X0107339Y0157157D01*
X0107339Y0152457D01*
X0106551Y0152457D01*
X0106551Y0157157D01*
X0104835Y0157157D01*
X0101851Y0154173D01*
X0101851Y0152457D01*
X0106551Y0152457D01*
X0106551Y0151669D01*
X0101851Y0151669D01*
X0101851Y0149953D01*
X0104835Y0146969D01*
X0105001Y0146757D02*
X0102251Y0144007D01*
X0102251Y0140119D01*
X0105001Y0137369D01*
X0108889Y0137369D01*
X0111639Y0140119D01*
X0111639Y0144007D01*
X0108889Y0146757D01*
X0105001Y0146757D01*
X0106551Y0147573D02*
X0107339Y0147573D01*
X0107339Y0146969D02*
X0109055Y0146969D01*
X0112039Y0149953D01*
X0112039Y0151669D01*
X0107339Y0151669D01*
X0107339Y0146969D01*
X0107339Y0148359D02*
X0106551Y0148359D01*
X0106551Y0149145D02*
X0107339Y0149145D01*
X0107339Y0149931D02*
X0106551Y0149931D01*
X0106551Y0150717D02*
X0107339Y0150717D01*
X0107339Y0151503D02*
X0106551Y0151503D01*
X0106551Y0152289D02*
X0101639Y0152289D01*
X0101639Y0153075D02*
X0101851Y0153075D01*
X0101851Y0153861D02*
X0101639Y0153861D01*
X0100999Y0154647D02*
X0102325Y0154647D01*
X0103111Y0155433D02*
X0100213Y0155433D01*
X0099427Y0156219D02*
X0103897Y0156219D01*
X0104683Y0157004D02*
X0052862Y0157004D01*
X0053187Y0156219D02*
X0074463Y0156219D01*
X0073677Y0155433D02*
X0053331Y0155433D01*
X0053331Y0154647D02*
X0072891Y0154647D01*
X0072251Y0153861D02*
X0053272Y0153861D01*
X0052947Y0153075D02*
X0072251Y0153075D01*
X0071587Y0152289D02*
X0053248Y0152289D01*
X0054034Y0151503D02*
X0070801Y0151503D01*
X0070015Y0150717D02*
X0054820Y0150717D01*
X0055606Y0149931D02*
X0069229Y0149931D01*
X0068443Y0149145D02*
X0056392Y0149145D01*
X0057177Y0148359D02*
X0067657Y0148359D01*
X0066935Y0147573D02*
X0057963Y0147573D01*
X0058749Y0146788D02*
X0066935Y0146788D01*
X0066935Y0146002D02*
X0059535Y0146002D01*
X0060321Y0145216D02*
X0066935Y0145216D01*
X0066935Y0144430D02*
X0061107Y0144430D01*
X0061893Y0143644D02*
X0066935Y0143644D01*
X0066935Y0142858D02*
X0062679Y0142858D01*
X0063465Y0142072D02*
X0066935Y0142072D01*
X0066935Y0141286D02*
X0064251Y0141286D01*
X0065037Y0140500D02*
X0066935Y0140500D01*
X0066935Y0139714D02*
X0065823Y0139714D01*
X0066608Y0138928D02*
X0066935Y0138928D01*
X0067394Y0138143D02*
X0067407Y0138143D01*
X0068180Y0137357D02*
X0068193Y0137357D01*
X0068966Y0136571D02*
X0068979Y0136571D01*
X0069752Y0135785D02*
X0069765Y0135785D01*
X0070538Y0134999D02*
X0070551Y0134999D01*
X0070694Y0134213D02*
X0071337Y0134213D01*
X0070694Y0133427D02*
X0072123Y0133427D01*
X0072909Y0132641D02*
X0070694Y0132641D01*
X0069307Y0134268D02*
X0048638Y0154937D01*
X0045434Y0151503D02*
X0042223Y0151503D01*
X0042621Y0152289D02*
X0044654Y0152289D01*
X0044329Y0153075D02*
X0042947Y0153075D01*
X0043272Y0153861D02*
X0044003Y0153861D01*
X0043944Y0154647D02*
X0043331Y0154647D01*
X0043331Y0155433D02*
X0043944Y0155433D01*
X0044088Y0156219D02*
X0043187Y0156219D01*
X0042862Y0157004D02*
X0044414Y0157004D01*
X0044853Y0157790D02*
X0042422Y0157790D01*
X0041636Y0158576D02*
X0045639Y0158576D01*
X0047056Y0159362D02*
X0040220Y0159362D01*
X0037056Y0159362D02*
X0030220Y0159362D01*
X0031636Y0158576D02*
X0035639Y0158576D01*
X0034853Y0157790D02*
X0032422Y0157790D01*
X0032862Y0157004D02*
X0034414Y0157004D01*
X0034088Y0156219D02*
X0033187Y0156219D01*
X0033331Y0155433D02*
X0033944Y0155433D01*
X0033944Y0154647D02*
X0033331Y0154647D01*
X0033272Y0153861D02*
X0034003Y0153861D01*
X0034329Y0153075D02*
X0032947Y0153075D01*
X0032621Y0152289D02*
X0034654Y0152289D01*
X0035434Y0151503D02*
X0031842Y0151503D01*
X0031198Y0150717D02*
X0036560Y0150717D01*
X0038638Y0153126D02*
X0044701Y0147063D01*
X0052575Y0147063D01*
X0067339Y0132299D01*
X0067339Y0125409D01*
X0069307Y0125409D02*
X0069307Y0134268D01*
X0067400Y0134213D02*
X0067387Y0134213D01*
X0066614Y0134999D02*
X0066601Y0134999D01*
X0065828Y0135785D02*
X0065815Y0135785D01*
X0065042Y0136571D02*
X0065029Y0136571D01*
X0064256Y0137357D02*
X0064243Y0137357D01*
X0063470Y0138143D02*
X0063457Y0138143D01*
X0062684Y0138928D02*
X0062671Y0138928D01*
X0061898Y0139714D02*
X0061885Y0139714D01*
X0061112Y0140500D02*
X0061100Y0140500D01*
X0060327Y0141286D02*
X0060314Y0141286D01*
X0059541Y0142072D02*
X0059528Y0142072D01*
X0058755Y0142858D02*
X0058742Y0142858D01*
X0057969Y0143644D02*
X0057956Y0143644D01*
X0057183Y0144430D02*
X0057170Y0144430D01*
X0056397Y0145216D02*
X0056384Y0145216D01*
X0055611Y0146002D02*
X0055598Y0146002D01*
X0054825Y0146788D02*
X0054812Y0146788D01*
X0054039Y0147573D02*
X0054026Y0147573D01*
X0053253Y0148359D02*
X0053240Y0148359D01*
X0052467Y0149145D02*
X0044581Y0149145D01*
X0043795Y0149931D02*
X0051681Y0149931D01*
X0050896Y0150717D02*
X0050715Y0150717D01*
X0046560Y0150717D02*
X0043009Y0150717D01*
X0040656Y0149145D02*
X0032770Y0149145D01*
X0033555Y0148359D02*
X0041442Y0148359D01*
X0042228Y0147573D02*
X0034341Y0147573D01*
X0035127Y0146788D02*
X0043014Y0146788D01*
X0043800Y0146002D02*
X0035913Y0146002D01*
X0036039Y0143913D02*
X0028638Y0151315D01*
X0028638Y0154937D01*
X0025434Y0151503D02*
X0022947Y0151503D01*
X0023158Y0152289D02*
X0024654Y0152289D01*
X0024329Y0153075D02*
X0023368Y0153075D01*
X0023504Y0153861D02*
X0024003Y0153861D01*
X0023944Y0154647D02*
X0023504Y0154647D01*
X0023504Y0155433D02*
X0023944Y0155433D01*
X0024088Y0156219D02*
X0023504Y0156219D01*
X0023313Y0157004D02*
X0024414Y0157004D01*
X0024853Y0157790D02*
X0023103Y0157790D01*
X0022892Y0158576D02*
X0025639Y0158576D01*
X0027056Y0159362D02*
X0022542Y0159362D01*
X0022089Y0160148D02*
X0122431Y0160148D01*
X0121977Y0159362D02*
X0050220Y0159362D01*
X0051636Y0158576D02*
X0121628Y0158576D01*
X0121417Y0157790D02*
X0052422Y0157790D01*
X0052575Y0143913D02*
X0036039Y0143913D01*
X0035133Y0142858D02*
X0022558Y0142858D01*
X0022586Y0142838D02*
X0021937Y0143309D01*
X0021223Y0143673D01*
X0020460Y0143921D01*
X0019669Y0144046D01*
X0019661Y0144046D01*
X0019661Y0139347D01*
X0018874Y0139347D01*
X0018874Y0144046D01*
X0018867Y0144046D01*
X0018075Y0143921D01*
X0017312Y0143673D01*
X0016598Y0143309D01*
X0015949Y0142838D01*
X0015382Y0142271D01*
X0014911Y0141622D01*
X0014547Y0140908D01*
X0014299Y0140146D01*
X0014174Y0139354D01*
X0014174Y0139346D01*
X0018874Y0139346D01*
X0018874Y0138559D01*
X0019661Y0138559D01*
X0019661Y0133859D01*
X0019669Y0133859D01*
X0020460Y0133984D01*
X0021223Y0134232D01*
X0021937Y0134596D01*
X0022586Y0135067D01*
X0023153Y0135634D01*
X0023624Y0136283D01*
X0023988Y0136997D01*
X0024236Y0137760D01*
X0024361Y0138552D01*
X0024361Y0138559D01*
X0019661Y0138559D01*
X0019661Y0139346D01*
X0024361Y0139346D01*
X0024361Y0139354D01*
X0024236Y0140146D01*
X0023988Y0140908D01*
X0023624Y0141622D01*
X0023153Y0142271D01*
X0022586Y0142838D01*
X0023298Y0142072D02*
X0029874Y0142072D01*
X0029088Y0141286D02*
X0023796Y0141286D01*
X0024121Y0140500D02*
X0028302Y0140500D01*
X0027516Y0139714D02*
X0024304Y0139714D01*
X0024297Y0138143D02*
X0025944Y0138143D01*
X0026730Y0138928D02*
X0019661Y0138928D01*
X0019661Y0138143D02*
X0018874Y0138143D01*
X0018874Y0138559D02*
X0018874Y0133859D01*
X0018867Y0133859D01*
X0018075Y0133984D01*
X0017312Y0134232D01*
X0016598Y0134596D01*
X0015949Y0135067D01*
X0015382Y0135634D01*
X0014911Y0136283D01*
X0014547Y0136997D01*
X0014299Y0137760D01*
X0014174Y0138552D01*
X0014174Y0138559D01*
X0018874Y0138559D01*
X0018874Y0138928D02*
X0013961Y0138928D01*
X0013961Y0138143D02*
X0014239Y0138143D01*
X0014430Y0137357D02*
X0013687Y0137357D01*
X0013612Y0136571D02*
X0014765Y0136571D01*
X0014398Y0135785D02*
X0015273Y0135785D01*
X0015184Y0134999D02*
X0016044Y0134999D01*
X0015970Y0134213D02*
X0017372Y0134213D01*
X0016755Y0133427D02*
X0021229Y0133427D01*
X0021164Y0134213D02*
X0022015Y0134213D01*
X0022492Y0134999D02*
X0022801Y0134999D01*
X0023262Y0135785D02*
X0023587Y0135785D01*
X0023771Y0136571D02*
X0024372Y0136571D01*
X0024105Y0137357D02*
X0025158Y0137357D01*
X0030528Y0140764D02*
X0021079Y0131315D01*
X0016906Y0131315D01*
X0009268Y0138953D01*
X0012786Y0142072D02*
X0015238Y0142072D01*
X0014740Y0141286D02*
X0013382Y0141286D01*
X0013707Y0140500D02*
X0014415Y0140500D01*
X0014231Y0139714D02*
X0013961Y0139714D01*
X0012000Y0142858D02*
X0015977Y0142858D01*
X0017255Y0143644D02*
X0010207Y0143644D01*
X0009692Y0145216D02*
X0005787Y0145216D01*
X0005787Y0146002D02*
X0008083Y0146002D01*
X0006789Y0146788D02*
X0005787Y0146788D01*
X0005787Y0147573D02*
X0006003Y0147573D01*
X0005787Y0144430D02*
X0033561Y0144430D01*
X0034347Y0143644D02*
X0021281Y0143644D01*
X0019661Y0143644D02*
X0018874Y0143644D01*
X0018874Y0142858D02*
X0019661Y0142858D01*
X0019661Y0142072D02*
X0018874Y0142072D01*
X0018874Y0141286D02*
X0019661Y0141286D01*
X0019661Y0140500D02*
X0018874Y0140500D01*
X0018874Y0139714D02*
X0019661Y0139714D01*
X0019661Y0137357D02*
X0018874Y0137357D01*
X0018874Y0136571D02*
X0019661Y0136571D01*
X0019661Y0135785D02*
X0018874Y0135785D01*
X0018874Y0134999D02*
X0019661Y0134999D01*
X0019661Y0134213D02*
X0018874Y0134213D01*
X0017693Y0127378D02*
X0009268Y0118953D01*
X0010940Y0114565D02*
X0022052Y0114565D01*
X0021266Y0113779D02*
X0005787Y0113779D01*
X0005787Y0112993D02*
X0006757Y0112993D01*
X0005884Y0112207D02*
X0005787Y0112207D01*
X0005787Y0114565D02*
X0007595Y0114565D01*
X0006231Y0115351D02*
X0005787Y0115351D01*
X0011778Y0112993D02*
X0020480Y0112993D01*
X0019694Y0112207D02*
X0012651Y0112207D01*
X0013326Y0111422D02*
X0018908Y0111422D01*
X0018122Y0110636D02*
X0013651Y0110636D01*
X0009268Y0108953D02*
X0018402Y0108953D01*
X0026000Y0116551D01*
X0050606Y0116551D01*
X0050606Y0114583D02*
X0027969Y0114583D01*
X0012339Y0098953D01*
X0009268Y0098953D01*
X0017142Y0099819D02*
X0017142Y0091945D01*
X0014150Y0088953D01*
X0009268Y0088953D01*
X0009268Y0078953D02*
X0015961Y0078953D01*
X0021079Y0084071D01*
X0021079Y0099819D01*
X0031906Y0110646D01*
X0050606Y0110646D01*
X0050606Y0112614D02*
X0029937Y0112614D01*
X0017142Y0099819D01*
X0025016Y0099819D02*
X0025016Y0082102D01*
X0011866Y0068953D01*
X0009268Y0068953D01*
X0009268Y0058953D02*
X0015646Y0058953D01*
X0021079Y0064386D01*
X0021079Y0072260D01*
X0028953Y0080134D01*
X0028953Y0099819D01*
X0035843Y0106709D01*
X0050606Y0106709D01*
X0050606Y0108677D02*
X0033874Y0108677D01*
X0025016Y0099819D01*
X0032890Y0099819D02*
X0035843Y0102772D01*
X0050606Y0102772D01*
X0050606Y0104740D02*
X0057496Y0104740D01*
X0058480Y0103756D01*
X0056874Y0101991D02*
X0053568Y0101991D01*
X0053568Y0102776D02*
X0056096Y0102776D01*
X0053568Y0101205D02*
X0083077Y0101205D01*
X0083077Y0101991D02*
X0060087Y0101991D01*
X0060865Y0102776D02*
X0083077Y0102776D01*
X0083077Y0103562D02*
X0060865Y0103562D01*
X0060865Y0104348D02*
X0083077Y0104348D01*
X0083077Y0105134D02*
X0060474Y0105134D01*
X0059688Y0105920D02*
X0083077Y0105920D01*
X0083077Y0106706D02*
X0053568Y0106706D01*
X0053568Y0107492D02*
X0083077Y0107492D01*
X0083077Y0108278D02*
X0053568Y0108278D01*
X0053568Y0109064D02*
X0083077Y0109064D01*
X0083077Y0109850D02*
X0053568Y0109850D01*
X0053568Y0110636D02*
X0083077Y0110636D01*
X0083077Y0111422D02*
X0053568Y0111422D01*
X0053568Y0112207D02*
X0083077Y0112207D01*
X0083077Y0112993D02*
X0053568Y0112993D01*
X0053568Y0113779D02*
X0077991Y0113779D01*
X0077205Y0114565D02*
X0053568Y0114565D01*
X0053568Y0115351D02*
X0073041Y0115351D01*
X0072255Y0116137D02*
X0053568Y0116137D01*
X0053568Y0116923D02*
X0071844Y0116923D01*
X0071844Y0117709D02*
X0053563Y0117709D01*
X0053568Y0118495D02*
X0071844Y0118495D01*
X0071857Y0119281D02*
X0053568Y0119281D01*
X0051022Y0120067D02*
X0071857Y0120067D01*
X0071857Y0120852D02*
X0050236Y0120852D01*
X0049450Y0121638D02*
X0071857Y0121638D01*
X0071857Y0122424D02*
X0048664Y0122424D01*
X0047654Y0121472D02*
X0050606Y0118520D01*
X0047644Y0118495D02*
X0037193Y0118495D01*
X0038001Y0119281D02*
X0047644Y0119281D01*
X0047097Y0120067D02*
X0038451Y0120067D01*
X0038314Y0123210D02*
X0056109Y0123210D01*
X0056109Y0123996D02*
X0037669Y0123996D01*
X0036391Y0124782D02*
X0056109Y0124782D01*
X0055375Y0125568D02*
X0017845Y0125568D01*
X0017059Y0124782D02*
X0034113Y0124782D01*
X0032835Y0123996D02*
X0016273Y0123996D01*
X0015487Y0123210D02*
X0032190Y0123210D01*
X0031865Y0122424D02*
X0014701Y0122424D01*
X0013915Y0121638D02*
X0031758Y0121638D01*
X0031758Y0120852D02*
X0013561Y0120852D01*
X0013887Y0120067D02*
X0032053Y0120067D01*
X0032503Y0119281D02*
X0013961Y0119281D01*
X0013961Y0118495D02*
X0033311Y0118495D01*
X0035252Y0121472D02*
X0047654Y0121472D01*
X0055528Y0127378D02*
X0017693Y0127378D01*
X0013833Y0117709D02*
X0025196Y0117709D01*
X0024410Y0116923D02*
X0013507Y0116923D01*
X0013090Y0116137D02*
X0023624Y0116137D01*
X0022838Y0115351D02*
X0012304Y0115351D01*
X0009268Y0128953D02*
X0009661Y0129346D01*
X0058480Y0129346D01*
X0059465Y0128362D01*
X0059465Y0125409D01*
X0061433Y0125409D02*
X0061433Y0129150D01*
X0055331Y0135252D01*
X0034858Y0135252D01*
X0030528Y0140764D02*
X0052575Y0140764D01*
X0063402Y0129937D01*
X0063402Y0125409D01*
X0065370Y0125409D02*
X0065370Y0131118D01*
X0052575Y0143913D01*
X0039870Y0149931D02*
X0031984Y0149931D01*
X0029631Y0148359D02*
X0021192Y0148359D01*
X0021753Y0149145D02*
X0028845Y0149145D01*
X0028059Y0149931D02*
X0022207Y0149931D01*
X0022661Y0150717D02*
X0026560Y0150717D01*
X0030417Y0147573D02*
X0020406Y0147573D01*
X0019621Y0146788D02*
X0031203Y0146788D01*
X0031989Y0146002D02*
X0018327Y0146002D01*
X0016718Y0145216D02*
X0032775Y0145216D01*
X0038638Y0153126D02*
X0038638Y0154937D01*
X0021635Y0160934D02*
X0122885Y0160934D01*
X0123533Y0161720D02*
X0020987Y0161720D01*
X0008328Y0143644D02*
X0005787Y0143644D01*
X0005787Y0142858D02*
X0006535Y0142858D01*
X0032890Y0099819D02*
X0032890Y0080134D01*
X0025016Y0072260D01*
X0025016Y0056512D01*
X0017457Y0048953D01*
X0009268Y0048953D01*
X0013205Y0044701D02*
X0009268Y0040764D01*
X0009268Y0038953D01*
X0012662Y0042196D02*
X0013779Y0043313D01*
X0016606Y0043313D01*
X0016598Y0043309D01*
X0015949Y0042838D01*
X0015382Y0042271D01*
X0014911Y0041622D01*
X0014547Y0040908D01*
X0014299Y0040146D01*
X0014174Y0039354D01*
X0014174Y0039346D01*
X0018874Y0039346D01*
X0018874Y0038559D01*
X0014174Y0038559D01*
X0014174Y0038552D01*
X0014299Y0037760D01*
X0014547Y0036997D01*
X0014911Y0036283D01*
X0015382Y0035634D01*
X0015559Y0035458D01*
X0013811Y0035458D01*
X0011473Y0033120D01*
X0010201Y0033646D01*
X0008334Y0033646D01*
X0006609Y0032932D01*
X0005787Y0032110D01*
X0005787Y0035795D01*
X0006609Y0034974D01*
X0008334Y0034259D01*
X0010201Y0034259D01*
X0011926Y0034974D01*
X0013247Y0036294D01*
X0013961Y0038019D01*
X0013961Y0039886D01*
X0013247Y0041612D01*
X0012662Y0042196D01*
X0012727Y0042261D02*
X0015375Y0042261D01*
X0014836Y0041475D02*
X0013303Y0041475D01*
X0013629Y0040689D02*
X0014476Y0040689D01*
X0014261Y0039903D02*
X0013954Y0039903D01*
X0013961Y0039118D02*
X0018874Y0039118D01*
X0019661Y0039118D02*
X0033218Y0039118D01*
X0034004Y0039903D02*
X0024274Y0039903D01*
X0024059Y0040689D02*
X0034790Y0040689D01*
X0035576Y0041475D02*
X0023699Y0041475D01*
X0023160Y0042261D02*
X0036362Y0042261D01*
X0037148Y0043047D02*
X0022298Y0043047D01*
X0022173Y0043833D02*
X0037934Y0043833D01*
X0038720Y0044619D02*
X0022959Y0044619D01*
X0023745Y0045405D02*
X0039506Y0045405D01*
X0040292Y0046191D02*
X0024531Y0046191D01*
X0025317Y0046977D02*
X0041078Y0046977D01*
X0041863Y0047763D02*
X0026103Y0047763D01*
X0026888Y0048548D02*
X0042649Y0048548D01*
X0043435Y0049334D02*
X0027674Y0049334D01*
X0028460Y0050120D02*
X0044221Y0050120D01*
X0045007Y0050906D02*
X0029246Y0050906D01*
X0030032Y0051692D02*
X0045793Y0051692D01*
X0046579Y0052478D02*
X0030340Y0052478D01*
X0030340Y0053264D02*
X0047365Y0053264D01*
X0048151Y0054050D02*
X0030340Y0054050D01*
X0030340Y0054836D02*
X0048937Y0054836D01*
X0049723Y0055622D02*
X0030340Y0055622D01*
X0030340Y0056408D02*
X0050509Y0056408D01*
X0051187Y0057194D02*
X0030340Y0057194D01*
X0030340Y0057979D02*
X0051187Y0057979D01*
X0051187Y0058765D02*
X0030340Y0058765D01*
X0030340Y0059551D02*
X0051187Y0059551D01*
X0051187Y0060337D02*
X0030340Y0060337D01*
X0030340Y0061123D02*
X0051187Y0061123D01*
X0051187Y0061909D02*
X0030340Y0061909D01*
X0030340Y0062695D02*
X0051187Y0062695D01*
X0051187Y0063481D02*
X0030340Y0063481D01*
X0030340Y0064267D02*
X0034336Y0064267D01*
X0032962Y0065053D02*
X0030340Y0065053D01*
X0030340Y0065839D02*
X0032176Y0065839D01*
X0031820Y0066624D02*
X0030340Y0066624D01*
X0030340Y0067410D02*
X0031494Y0067410D01*
X0031470Y0068196D02*
X0030340Y0068196D01*
X0030340Y0068982D02*
X0031470Y0068982D01*
X0031715Y0069768D02*
X0030340Y0069768D01*
X0030340Y0070554D02*
X0032041Y0070554D01*
X0032709Y0071340D02*
X0030340Y0071340D01*
X0030781Y0072126D02*
X0033725Y0072126D01*
X0032353Y0073698D02*
X0040240Y0073698D01*
X0041025Y0074484D02*
X0033139Y0074484D01*
X0033925Y0075270D02*
X0041811Y0075270D01*
X0042597Y0076055D02*
X0034710Y0076055D01*
X0035496Y0076841D02*
X0043383Y0076841D01*
X0044169Y0077627D02*
X0036282Y0077627D01*
X0037068Y0078413D02*
X0044955Y0078413D01*
X0045741Y0079199D02*
X0037854Y0079199D01*
X0038214Y0079985D02*
X0046527Y0079985D01*
X0047313Y0080771D02*
X0038214Y0080771D01*
X0038214Y0081557D02*
X0048099Y0081557D01*
X0048885Y0082343D02*
X0038214Y0082343D01*
X0038214Y0083129D02*
X0040129Y0083129D01*
X0039764Y0083915D02*
X0038214Y0083915D01*
X0038214Y0084700D02*
X0039764Y0084700D01*
X0039764Y0085486D02*
X0038214Y0085486D01*
X0038214Y0086272D02*
X0042929Y0086272D01*
X0042929Y0085486D02*
X0043716Y0085486D01*
X0043716Y0084700D02*
X0042929Y0084700D01*
X0042929Y0083915D02*
X0043716Y0083915D01*
X0043716Y0083129D02*
X0042929Y0083129D01*
X0042929Y0087058D02*
X0043716Y0087058D01*
X0043716Y0087844D02*
X0042929Y0087844D01*
X0042929Y0088630D02*
X0043716Y0088630D01*
X0046738Y0088630D02*
X0047067Y0088630D01*
X0048813Y0089416D02*
X0038214Y0089416D01*
X0038214Y0090202D02*
X0048813Y0090202D01*
X0049081Y0090988D02*
X0038214Y0090988D01*
X0038214Y0091774D02*
X0049113Y0091774D01*
X0049113Y0092560D02*
X0038214Y0092560D01*
X0038214Y0093346D02*
X0049113Y0093346D01*
X0049113Y0094131D02*
X0038214Y0094131D01*
X0038214Y0094917D02*
X0049113Y0094917D01*
X0048002Y0095703D02*
X0038610Y0095703D01*
X0039396Y0096489D02*
X0047644Y0096489D01*
X0047644Y0097275D02*
X0040182Y0097275D01*
X0040968Y0098061D02*
X0047297Y0098061D01*
X0047244Y0098847D02*
X0041754Y0098847D01*
X0041748Y0100803D02*
X0036827Y0095882D01*
X0036827Y0080134D01*
X0028953Y0072260D01*
X0028953Y0052575D01*
X0021079Y0044701D01*
X0013205Y0044701D01*
X0013513Y0043047D02*
X0016237Y0043047D01*
X0014209Y0038332D02*
X0013961Y0038332D01*
X0013765Y0037546D02*
X0014369Y0037546D01*
X0014668Y0036760D02*
X0013440Y0036760D01*
X0012927Y0035974D02*
X0015136Y0035974D01*
X0013541Y0035188D02*
X0012141Y0035188D01*
X0012755Y0034402D02*
X0010547Y0034402D01*
X0010275Y0033616D02*
X0011969Y0033616D01*
X0014386Y0034071D02*
X0009268Y0028953D01*
X0012710Y0025757D02*
X0015826Y0025757D01*
X0015185Y0026543D02*
X0013350Y0026543D01*
X0013675Y0027329D02*
X0014860Y0027329D01*
X0014574Y0028115D02*
X0013961Y0028115D01*
X0013961Y0028901D02*
X0014574Y0028901D01*
X0014574Y0029687D02*
X0013961Y0029687D01*
X0013719Y0030472D02*
X0014817Y0030472D01*
X0015142Y0031258D02*
X0013535Y0031258D01*
X0014321Y0032044D02*
X0015721Y0032044D01*
X0014386Y0034071D02*
X0030134Y0034071D01*
X0052575Y0056512D01*
X0052575Y0071866D01*
X0058087Y0077378D01*
X0060449Y0080134D02*
X0052575Y0080134D01*
X0045764Y0073323D01*
X0045764Y0068323D01*
X0048819Y0071340D02*
X0051187Y0071340D01*
X0051187Y0072126D02*
X0047802Y0072126D01*
X0047315Y0072912D02*
X0051658Y0072912D01*
X0052444Y0073698D02*
X0048101Y0073698D01*
X0048887Y0074484D02*
X0053230Y0074484D01*
X0054016Y0075270D02*
X0049673Y0075270D01*
X0050458Y0076055D02*
X0054802Y0076055D01*
X0055588Y0076841D02*
X0051244Y0076841D01*
X0052030Y0077627D02*
X0055702Y0077627D01*
X0055750Y0078413D02*
X0052816Y0078413D01*
X0050464Y0079985D02*
X0050451Y0079985D01*
X0049678Y0079199D02*
X0049665Y0079199D01*
X0048892Y0078413D02*
X0048879Y0078413D01*
X0048106Y0077627D02*
X0048093Y0077627D01*
X0047320Y0076841D02*
X0047307Y0076841D01*
X0046534Y0076055D02*
X0046521Y0076055D01*
X0045748Y0075270D02*
X0045736Y0075270D01*
X0044962Y0074484D02*
X0044950Y0074484D01*
X0044376Y0073698D02*
X0044164Y0073698D01*
X0044376Y0072912D02*
X0043378Y0072912D01*
X0043725Y0072126D02*
X0042592Y0072126D01*
X0042709Y0071340D02*
X0041806Y0071340D01*
X0042041Y0070554D02*
X0041020Y0070554D01*
X0041715Y0069768D02*
X0040234Y0069768D01*
X0040057Y0068982D02*
X0041470Y0068982D01*
X0041470Y0068196D02*
X0040057Y0068196D01*
X0040033Y0067410D02*
X0041494Y0067410D01*
X0041820Y0066624D02*
X0039708Y0066624D01*
X0039352Y0065839D02*
X0042176Y0065839D01*
X0042962Y0065053D02*
X0038566Y0065053D01*
X0037191Y0064267D02*
X0044336Y0064267D01*
X0047191Y0064267D02*
X0051187Y0064267D01*
X0051187Y0065053D02*
X0048566Y0065053D01*
X0049352Y0065839D02*
X0051187Y0065839D01*
X0051187Y0066624D02*
X0049708Y0066624D01*
X0050033Y0067410D02*
X0051187Y0067410D01*
X0051187Y0068196D02*
X0050057Y0068196D01*
X0050057Y0068982D02*
X0051187Y0068982D01*
X0051187Y0069768D02*
X0049813Y0069768D01*
X0049487Y0070554D02*
X0051187Y0070554D01*
X0053962Y0070554D02*
X0059849Y0070554D01*
X0059849Y0071340D02*
X0054011Y0071340D01*
X0054797Y0072126D02*
X0059849Y0072126D01*
X0059849Y0072912D02*
X0055583Y0072912D01*
X0056368Y0073698D02*
X0059849Y0073698D01*
X0059849Y0074484D02*
X0057154Y0074484D01*
X0059350Y0075270D02*
X0059849Y0075270D01*
X0061630Y0074228D02*
X0061630Y0077378D01*
X0065370Y0081118D01*
X0065370Y0089976D01*
X0067339Y0089976D02*
X0067339Y0081118D01*
X0071079Y0077378D01*
X0071079Y0074228D01*
X0072860Y0074484D02*
X0075798Y0074484D01*
X0075012Y0075270D02*
X0072860Y0075270D01*
X0072860Y0076055D02*
X0074226Y0076055D01*
X0073440Y0076841D02*
X0072860Y0076841D01*
X0072860Y0073698D02*
X0076584Y0073698D01*
X0077370Y0072912D02*
X0072860Y0072912D01*
X0072860Y0072126D02*
X0078155Y0072126D01*
X0078941Y0071340D02*
X0072860Y0071340D01*
X0072860Y0070554D02*
X0081109Y0070554D01*
X0081109Y0069768D02*
X0072748Y0069768D01*
X0069409Y0069768D02*
X0068444Y0069768D01*
X0068535Y0070554D02*
X0069298Y0070554D01*
X0069298Y0071340D02*
X0068535Y0071340D01*
X0068535Y0072126D02*
X0069298Y0072126D01*
X0069298Y0072912D02*
X0068535Y0072912D01*
X0068535Y0073698D02*
X0069298Y0073698D01*
X0069298Y0074484D02*
X0068535Y0074484D01*
X0068535Y0075270D02*
X0069298Y0075270D01*
X0069298Y0076055D02*
X0068535Y0076055D01*
X0068535Y0076841D02*
X0069298Y0076841D01*
X0068867Y0077627D02*
X0068535Y0077627D01*
X0066510Y0079985D02*
X0066199Y0079985D01*
X0066354Y0079199D02*
X0066354Y0079199D01*
X0066354Y0078413D02*
X0066354Y0078413D01*
X0066354Y0077627D02*
X0066354Y0077627D01*
X0066354Y0076841D02*
X0066354Y0076841D01*
X0066354Y0076055D02*
X0066354Y0076055D01*
X0066354Y0075270D02*
X0066354Y0075270D01*
X0066354Y0074484D02*
X0066354Y0074484D01*
X0066354Y0073698D02*
X0066354Y0073698D01*
X0066354Y0072912D02*
X0066354Y0072912D01*
X0066354Y0072126D02*
X0066354Y0072126D01*
X0066354Y0071340D02*
X0066354Y0071340D01*
X0066354Y0070554D02*
X0066354Y0070554D01*
X0066354Y0069768D02*
X0066354Y0069768D01*
X0066354Y0068982D02*
X0066354Y0068982D01*
X0065068Y0068982D02*
X0053962Y0068982D01*
X0053962Y0068196D02*
X0081186Y0068196D01*
X0081219Y0068982D02*
X0067641Y0068982D01*
X0064264Y0069768D02*
X0063299Y0069768D01*
X0063411Y0070554D02*
X0064173Y0070554D01*
X0064173Y0071340D02*
X0063411Y0071340D01*
X0063411Y0072126D02*
X0064173Y0072126D01*
X0064173Y0072912D02*
X0063411Y0072912D01*
X0063411Y0073698D02*
X0064173Y0073698D01*
X0064173Y0074484D02*
X0063411Y0074484D01*
X0063411Y0075270D02*
X0064173Y0075270D01*
X0064173Y0076055D02*
X0063411Y0076055D01*
X0063411Y0076841D02*
X0064173Y0076841D01*
X0064173Y0077627D02*
X0063841Y0077627D01*
X0060449Y0080134D02*
X0063402Y0083087D01*
X0063402Y0089976D01*
X0061433Y0089976D02*
X0061433Y0083087D01*
X0060449Y0082102D01*
X0050606Y0082102D01*
X0036827Y0068323D01*
X0035764Y0068323D01*
X0037802Y0072126D02*
X0038668Y0072126D01*
X0039454Y0072912D02*
X0031567Y0072912D01*
X0038214Y0087058D02*
X0039764Y0087058D01*
X0039764Y0087844D02*
X0038214Y0087844D01*
X0038214Y0088630D02*
X0039907Y0088630D01*
X0046517Y0083129D02*
X0047387Y0083129D01*
X0052100Y0091774D02*
X0052551Y0091774D01*
X0052100Y0092560D02*
X0053778Y0092560D01*
X0055309Y0092560D02*
X0056312Y0092560D01*
X0059465Y0089976D02*
X0059465Y0086236D01*
X0058874Y0085646D01*
X0053916Y0098061D02*
X0083077Y0098061D01*
X0083077Y0098847D02*
X0053968Y0098847D01*
X0053909Y0099633D02*
X0083077Y0099633D01*
X0083077Y0100419D02*
X0053568Y0100419D01*
X0050606Y0100803D02*
X0041748Y0100803D01*
X0057496Y0125409D02*
X0055528Y0127378D01*
X0068323Y0139189D02*
X0068323Y0147063D01*
X0073323Y0152063D01*
X0076945Y0152063D01*
X0080213Y0155433D02*
X0083677Y0155433D01*
X0084463Y0156219D02*
X0079427Y0156219D01*
X0080999Y0154647D02*
X0082891Y0154647D01*
X0082251Y0153861D02*
X0081639Y0153861D01*
X0081639Y0153075D02*
X0082251Y0153075D01*
X0082251Y0152289D02*
X0081639Y0152289D01*
X0081639Y0151503D02*
X0082251Y0151503D01*
X0082251Y0150717D02*
X0081639Y0150717D01*
X0081451Y0149931D02*
X0082439Y0149931D01*
X0082065Y0149145D02*
X0080665Y0149145D01*
X0081279Y0148359D02*
X0079879Y0148359D01*
X0079093Y0147573D02*
X0080715Y0147573D01*
X0080715Y0146788D02*
X0070009Y0146788D01*
X0069710Y0146002D02*
X0074246Y0146002D01*
X0073460Y0145216D02*
X0069710Y0145216D01*
X0069710Y0144430D02*
X0072674Y0144430D01*
X0072251Y0143644D02*
X0069710Y0143644D01*
X0069710Y0142858D02*
X0072251Y0142858D01*
X0072251Y0142072D02*
X0069710Y0142072D01*
X0069710Y0141286D02*
X0072251Y0141286D01*
X0072251Y0140500D02*
X0069710Y0140500D01*
X0069760Y0139714D02*
X0072656Y0139714D01*
X0073442Y0138928D02*
X0070545Y0138928D01*
X0071331Y0138143D02*
X0074227Y0138143D01*
X0072903Y0136571D02*
X0079491Y0136571D01*
X0080276Y0137357D02*
X0072117Y0137357D01*
X0073689Y0135785D02*
X0078705Y0135785D01*
X0077919Y0134999D02*
X0074475Y0134999D01*
X0075261Y0134213D02*
X0077133Y0134213D01*
X0076347Y0133427D02*
X0076047Y0133427D01*
X0075213Y0132299D02*
X0068323Y0139189D01*
X0070795Y0147573D02*
X0074796Y0147573D01*
X0074011Y0148359D02*
X0071581Y0148359D01*
X0072367Y0149145D02*
X0073225Y0149145D01*
X0079644Y0146002D02*
X0080715Y0146002D01*
X0080715Y0145216D02*
X0080430Y0145216D01*
X0082102Y0147220D02*
X0086945Y0152063D01*
X0090213Y0155433D02*
X0093677Y0155433D01*
X0094463Y0156219D02*
X0089427Y0156219D01*
X0090999Y0154647D02*
X0092891Y0154647D01*
X0092251Y0153861D02*
X0091639Y0153861D01*
X0091639Y0153075D02*
X0092251Y0153075D01*
X0092251Y0152289D02*
X0091639Y0152289D01*
X0091639Y0151503D02*
X0092251Y0151503D01*
X0092251Y0150717D02*
X0091639Y0150717D01*
X0091451Y0149931D02*
X0092439Y0149931D01*
X0092065Y0149145D02*
X0090665Y0149145D01*
X0091370Y0148450D02*
X0091370Y0148450D01*
X0091279Y0148359D02*
X0089879Y0148359D01*
X0090557Y0147573D02*
X0089093Y0147573D01*
X0090557Y0146788D02*
X0083632Y0146788D01*
X0083490Y0146002D02*
X0084246Y0146002D01*
X0084417Y0147573D02*
X0084796Y0147573D01*
X0082102Y0147220D02*
X0082102Y0137220D01*
X0077181Y0132299D01*
X0077181Y0125409D01*
X0075213Y0125409D02*
X0075213Y0132299D01*
X0072260Y0130134D02*
X0071276Y0129150D01*
X0071276Y0125409D01*
X0073244Y0125409D02*
X0073244Y0118520D01*
X0074228Y0117535D01*
X0075855Y0119281D02*
X0077948Y0119281D01*
X0077163Y0118495D02*
X0076613Y0118495D01*
X0076613Y0117709D02*
X0076778Y0117709D01*
X0076778Y0116923D02*
X0076613Y0116923D01*
X0076778Y0116137D02*
X0076202Y0116137D01*
X0076778Y0115351D02*
X0075416Y0115351D01*
X0078165Y0115567D02*
X0078165Y0117535D01*
X0088008Y0127378D01*
X0095882Y0127378D01*
X0097444Y0125568D02*
X0098431Y0125568D01*
X0098431Y0126354D02*
X0098230Y0126354D01*
X0098266Y0127140D02*
X0098431Y0127140D01*
X0098431Y0127926D02*
X0098266Y0127926D01*
X0098431Y0128712D02*
X0097920Y0128712D01*
X0098431Y0129498D02*
X0097134Y0129498D01*
X0098431Y0130283D02*
X0081064Y0130283D01*
X0080537Y0129498D02*
X0094630Y0129498D01*
X0094320Y0125568D02*
X0088160Y0125568D01*
X0087374Y0124782D02*
X0098431Y0124782D01*
X0098431Y0123996D02*
X0086588Y0123996D01*
X0085802Y0123210D02*
X0098431Y0123210D01*
X0098431Y0122424D02*
X0095152Y0122424D01*
X0095904Y0121638D02*
X0098431Y0121638D01*
X0098431Y0120852D02*
X0095904Y0120852D01*
X0095904Y0120067D02*
X0098431Y0120067D01*
X0098431Y0119281D02*
X0095487Y0119281D01*
X0094701Y0118495D02*
X0098431Y0118495D01*
X0098431Y0117709D02*
X0092656Y0117709D01*
X0091135Y0120852D02*
X0083444Y0120852D01*
X0082659Y0120067D02*
X0090789Y0120067D01*
X0091135Y0121638D02*
X0084230Y0121638D01*
X0085016Y0122424D02*
X0091887Y0122424D01*
X0089402Y0116923D02*
X0098431Y0116923D01*
X0098431Y0116137D02*
X0089402Y0116137D01*
X0089538Y0115351D02*
X0089152Y0115351D01*
X0090764Y0113205D02*
X0090173Y0112614D01*
X0086039Y0112614D01*
X0086039Y0110646D02*
X0098835Y0110646D01*
X0099819Y0111630D01*
X0098431Y0112207D02*
X0093138Y0112207D01*
X0093148Y0112993D02*
X0098431Y0112993D01*
X0098431Y0113779D02*
X0093148Y0113779D01*
X0092775Y0114565D02*
X0098431Y0114565D01*
X0098431Y0115351D02*
X0091989Y0115351D01*
X0086039Y0114583D02*
X0079150Y0114583D01*
X0078165Y0115567D01*
X0079557Y0116137D02*
X0082677Y0116137D01*
X0082677Y0116923D02*
X0079553Y0116923D01*
X0080301Y0117709D02*
X0082903Y0117709D01*
X0083077Y0118495D02*
X0081087Y0118495D01*
X0081873Y0119281D02*
X0083077Y0119281D01*
X0080306Y0121638D02*
X0074631Y0121638D01*
X0074631Y0120852D02*
X0079520Y0120852D01*
X0078734Y0120067D02*
X0074631Y0120067D01*
X0074631Y0122424D02*
X0081092Y0122424D01*
X0080537Y0123210D02*
X0081878Y0123210D01*
X0082664Y0123996D02*
X0080537Y0123996D01*
X0080537Y0124782D02*
X0083450Y0124782D01*
X0084236Y0125568D02*
X0080537Y0125568D01*
X0080537Y0126354D02*
X0085022Y0126354D01*
X0085808Y0127140D02*
X0080537Y0127140D01*
X0080537Y0127926D02*
X0086594Y0127926D01*
X0087379Y0128712D02*
X0080537Y0128712D01*
X0079150Y0130331D02*
X0084071Y0135252D01*
X0088008Y0135252D01*
X0091945Y0139189D01*
X0091945Y0147063D01*
X0096945Y0152063D01*
X0099879Y0148359D02*
X0103445Y0148359D01*
X0102659Y0149145D02*
X0100665Y0149145D01*
X0101451Y0149931D02*
X0101873Y0149931D01*
X0101851Y0150717D02*
X0101639Y0150717D01*
X0101639Y0151503D02*
X0101851Y0151503D01*
X0106551Y0153075D02*
X0107339Y0153075D01*
X0107339Y0153861D02*
X0106551Y0153861D01*
X0106551Y0154647D02*
X0107339Y0154647D01*
X0107339Y0155433D02*
X0106551Y0155433D01*
X0106551Y0156219D02*
X0107339Y0156219D01*
X0107339Y0157004D02*
X0106551Y0157004D01*
X0109207Y0157004D02*
X0121206Y0157004D01*
X0121016Y0156219D02*
X0109993Y0156219D01*
X0110779Y0155433D02*
X0121016Y0155433D01*
X0121016Y0154647D02*
X0111565Y0154647D01*
X0112039Y0153861D02*
X0121016Y0153861D01*
X0121151Y0153075D02*
X0112039Y0153075D01*
X0112039Y0151503D02*
X0121573Y0151503D01*
X0121362Y0152289D02*
X0107339Y0152289D01*
X0111231Y0149145D02*
X0122766Y0149145D01*
X0122313Y0149931D02*
X0112017Y0149931D01*
X0112039Y0150717D02*
X0121859Y0150717D01*
X0123327Y0148359D02*
X0110445Y0148359D01*
X0109659Y0147573D02*
X0124113Y0147573D01*
X0124899Y0146788D02*
X0093632Y0146788D01*
X0093332Y0146002D02*
X0094246Y0146002D01*
X0093460Y0145216D02*
X0093332Y0145216D01*
X0094417Y0147573D02*
X0094796Y0147573D01*
X0090557Y0146002D02*
X0089644Y0146002D01*
X0090430Y0145216D02*
X0090557Y0145216D01*
X0093332Y0138928D02*
X0093442Y0138928D01*
X0092861Y0138143D02*
X0094227Y0138143D01*
X0092075Y0137357D02*
X0098431Y0137357D01*
X0098431Y0136571D02*
X0091289Y0136571D01*
X0090503Y0135785D02*
X0098431Y0135785D01*
X0098431Y0134999D02*
X0089717Y0134999D01*
X0088931Y0134213D02*
X0098431Y0134213D01*
X0098431Y0133427D02*
X0084208Y0133427D01*
X0083422Y0132641D02*
X0098431Y0132641D01*
X0098431Y0131855D02*
X0082636Y0131855D01*
X0081850Y0131069D02*
X0098431Y0131069D01*
X0101206Y0131069D02*
X0125406Y0131069D01*
X0124621Y0130283D02*
X0101206Y0130283D01*
X0101206Y0129498D02*
X0102504Y0129498D01*
X0101718Y0128712D02*
X0101206Y0128712D01*
X0101206Y0127926D02*
X0101372Y0127926D01*
X0101372Y0127140D02*
X0101206Y0127140D01*
X0101206Y0126354D02*
X0101408Y0126354D01*
X0101206Y0125568D02*
X0102194Y0125568D01*
X0101206Y0124782D02*
X0129119Y0124782D01*
X0128333Y0123996D02*
X0101206Y0123996D01*
X0101206Y0123210D02*
X0127547Y0123210D01*
X0126761Y0122424D02*
X0101206Y0122424D01*
X0101206Y0121638D02*
X0125976Y0121638D01*
X0125190Y0120852D02*
X0101206Y0120852D01*
X0101206Y0120067D02*
X0124404Y0120067D01*
X0123618Y0119281D02*
X0101206Y0119281D01*
X0101206Y0118495D02*
X0122832Y0118495D01*
X0122046Y0117709D02*
X0106954Y0117709D01*
X0104494Y0117709D02*
X0101206Y0117709D01*
X0101206Y0116923D02*
X0103709Y0116923D01*
X0103340Y0116137D02*
X0101206Y0116137D01*
X0101206Y0115351D02*
X0103340Y0115351D01*
X0103354Y0114565D02*
X0101206Y0114565D01*
X0107309Y0113779D02*
X0128116Y0113779D01*
X0124976Y0108677D02*
X0135252Y0118953D01*
X0138418Y0122424D02*
X0138732Y0122424D01*
X0138732Y0123210D02*
X0137239Y0123210D01*
X0133056Y0124782D02*
X0133043Y0124782D01*
X0130691Y0126354D02*
X0124615Y0126354D01*
X0125401Y0127140D02*
X0130923Y0127140D01*
X0130597Y0127926D02*
X0126187Y0127926D01*
X0126973Y0128712D02*
X0130558Y0128712D01*
X0130558Y0129498D02*
X0127759Y0129498D01*
X0128545Y0130283D02*
X0130723Y0130283D01*
X0131048Y0131069D02*
X0129331Y0131069D01*
X0130117Y0131855D02*
X0131517Y0131855D01*
X0130902Y0132641D02*
X0132302Y0132641D01*
X0131688Y0133427D02*
X0133789Y0133427D01*
X0132474Y0134213D02*
X0138732Y0134213D01*
X0138732Y0134999D02*
X0137936Y0134999D01*
X0138722Y0135785D02*
X0138732Y0135785D01*
X0138732Y0133427D02*
X0136715Y0133427D01*
X0138201Y0132641D02*
X0138732Y0132641D01*
X0135252Y0138953D02*
X0123677Y0127378D01*
X0103756Y0127378D01*
X0105318Y0125568D02*
X0129905Y0125568D01*
X0123835Y0129498D02*
X0105008Y0129498D01*
X0101206Y0131855D02*
X0126192Y0131855D01*
X0126978Y0132641D02*
X0101206Y0132641D01*
X0101206Y0133427D02*
X0127764Y0133427D01*
X0127207Y0134232D02*
X0127922Y0134596D01*
X0128570Y0135067D01*
X0129137Y0135634D01*
X0129608Y0136283D01*
X0129972Y0136997D01*
X0130220Y0137760D01*
X0130346Y0138552D01*
X0130346Y0138559D01*
X0125646Y0138559D01*
X0125646Y0139346D01*
X0130346Y0139346D01*
X0130346Y0139354D01*
X0130220Y0140146D01*
X0129972Y0140908D01*
X0129608Y0141622D01*
X0129137Y0142271D01*
X0128570Y0142838D01*
X0127922Y0143309D01*
X0127207Y0143673D01*
X0126445Y0143921D01*
X0125653Y0144046D01*
X0125646Y0144046D01*
X0125646Y0139347D01*
X0124858Y0139347D01*
X0124858Y0144046D01*
X0124851Y0144046D01*
X0124059Y0143921D01*
X0123297Y0143673D01*
X0122582Y0143309D01*
X0121934Y0142838D01*
X0121367Y0142271D01*
X0120895Y0141622D01*
X0120531Y0140908D01*
X0120284Y0140146D01*
X0120158Y0139354D01*
X0120158Y0139346D01*
X0124858Y0139346D01*
X0124858Y0138559D01*
X0120158Y0138559D01*
X0120158Y0138552D01*
X0120284Y0137760D01*
X0120531Y0136997D01*
X0120895Y0136283D01*
X0121367Y0135634D01*
X0121934Y0135067D01*
X0122582Y0134596D01*
X0123297Y0134232D01*
X0124059Y0133984D01*
X0124851Y0133859D01*
X0124858Y0133859D01*
X0124858Y0138559D01*
X0125646Y0138559D01*
X0125646Y0133859D01*
X0125653Y0133859D01*
X0126445Y0133984D01*
X0127207Y0134232D01*
X0127148Y0134213D02*
X0128550Y0134213D01*
X0128476Y0134999D02*
X0129336Y0134999D01*
X0129246Y0135785D02*
X0130122Y0135785D01*
X0129755Y0136571D02*
X0130908Y0136571D01*
X0130833Y0137357D02*
X0130089Y0137357D01*
X0130281Y0138143D02*
X0130558Y0138143D01*
X0130558Y0138928D02*
X0125646Y0138928D01*
X0125646Y0138143D02*
X0124858Y0138143D01*
X0124858Y0138928D02*
X0110448Y0138928D01*
X0109662Y0138143D02*
X0120223Y0138143D01*
X0120415Y0137357D02*
X0101206Y0137357D01*
X0101206Y0138143D02*
X0104227Y0138143D01*
X0103442Y0138928D02*
X0101206Y0138928D01*
X0101234Y0139714D02*
X0102656Y0139714D01*
X0102251Y0140500D02*
X0101639Y0140500D01*
X0101639Y0141286D02*
X0102251Y0141286D01*
X0102251Y0142072D02*
X0101639Y0142072D01*
X0101639Y0142858D02*
X0102251Y0142858D01*
X0102251Y0143644D02*
X0101639Y0143644D01*
X0101216Y0144430D02*
X0102674Y0144430D01*
X0109644Y0146002D02*
X0126193Y0146002D01*
X0127802Y0145216D02*
X0110430Y0145216D01*
X0111216Y0144430D02*
X0138732Y0144430D01*
X0138732Y0145216D02*
X0134828Y0145216D01*
X0134312Y0143644D02*
X0127265Y0143644D01*
X0128543Y0142858D02*
X0132519Y0142858D01*
X0131733Y0142072D02*
X0129282Y0142072D01*
X0129780Y0141286D02*
X0131138Y0141286D01*
X0130813Y0140500D02*
X0130105Y0140500D01*
X0130289Y0139714D02*
X0130558Y0139714D01*
X0125646Y0139714D02*
X0124858Y0139714D01*
X0124858Y0140500D02*
X0125646Y0140500D01*
X0125646Y0141286D02*
X0124858Y0141286D01*
X0124858Y0142072D02*
X0125646Y0142072D01*
X0125646Y0142858D02*
X0124858Y0142858D01*
X0124858Y0143644D02*
X0125646Y0143644D01*
X0123239Y0143644D02*
X0111639Y0143644D01*
X0111639Y0142858D02*
X0121961Y0142858D01*
X0121222Y0142072D02*
X0111639Y0142072D01*
X0111639Y0141286D02*
X0120724Y0141286D01*
X0120399Y0140500D02*
X0111639Y0140500D01*
X0111234Y0139714D02*
X0120215Y0139714D01*
X0120749Y0136571D02*
X0101206Y0136571D01*
X0101206Y0135785D02*
X0121257Y0135785D01*
X0122028Y0134999D02*
X0101206Y0134999D01*
X0101206Y0134213D02*
X0123356Y0134213D01*
X0124858Y0134213D02*
X0125646Y0134213D01*
X0125646Y0134999D02*
X0124858Y0134999D01*
X0124858Y0135785D02*
X0125646Y0135785D01*
X0125646Y0136571D02*
X0124858Y0136571D01*
X0124858Y0137357D02*
X0125646Y0137357D01*
X0136192Y0143644D02*
X0138732Y0143644D01*
X0138732Y0142858D02*
X0137985Y0142858D01*
X0138732Y0146002D02*
X0136437Y0146002D01*
X0137731Y0146788D02*
X0138732Y0146788D01*
X0138732Y0147573D02*
X0138517Y0147573D01*
X0124976Y0108677D02*
X0086039Y0108677D01*
X0079150Y0125409D02*
X0079150Y0130331D01*
X0079662Y0138143D02*
X0080715Y0138143D01*
X0080715Y0138928D02*
X0080448Y0138928D01*
X0079150Y0089976D02*
X0101787Y0089976D01*
X0119504Y0072260D01*
X0106668Y0068982D02*
X0097376Y0068982D01*
X0098121Y0068196D02*
X0106668Y0068196D01*
X0106668Y0067410D02*
X0098907Y0067410D01*
X0100952Y0066624D02*
X0106668Y0066624D01*
X0106668Y0065839D02*
X0101738Y0065839D01*
X0102203Y0065053D02*
X0106668Y0065053D01*
X0106668Y0064267D02*
X0102203Y0064267D01*
X0102203Y0063481D02*
X0106668Y0063481D01*
X0106668Y0062695D02*
X0101500Y0062695D01*
X0098138Y0062695D02*
X0095439Y0062695D01*
X0095439Y0061909D02*
X0106668Y0061909D01*
X0106668Y0061123D02*
X0095190Y0061123D01*
X0094806Y0060337D02*
X0106668Y0060337D01*
X0106668Y0059551D02*
X0094020Y0059551D01*
X0095286Y0063481D02*
X0097435Y0063481D01*
X0097435Y0064267D02*
X0094960Y0064267D01*
X0094250Y0065053D02*
X0097040Y0065053D01*
X0096254Y0065839D02*
X0093439Y0065839D01*
X0093439Y0066624D02*
X0095468Y0066624D01*
X0094682Y0067410D02*
X0093439Y0067410D01*
X0093439Y0068196D02*
X0094388Y0068196D01*
X0094388Y0068982D02*
X0093439Y0068982D01*
X0090451Y0068982D02*
X0086923Y0068982D01*
X0086956Y0068196D02*
X0090451Y0068196D01*
X0090451Y0067410D02*
X0087410Y0067410D01*
X0087433Y0066624D02*
X0090451Y0066624D01*
X0090451Y0065839D02*
X0087433Y0065839D01*
X0087433Y0064583D02*
X0084465Y0064583D01*
X0084465Y0061417D01*
X0086223Y0061417D01*
X0086577Y0061512D01*
X0086895Y0061696D01*
X0087155Y0061955D01*
X0087338Y0062273D01*
X0087433Y0062628D01*
X0087433Y0064583D01*
X0087433Y0064267D02*
X0088929Y0064267D01*
X0088604Y0063481D02*
X0087433Y0063481D01*
X0087433Y0062695D02*
X0088451Y0062695D01*
X0088451Y0061909D02*
X0087108Y0061909D01*
X0088699Y0061123D02*
X0053962Y0061123D01*
X0053962Y0060337D02*
X0056867Y0060337D01*
X0056788Y0060199D02*
X0056693Y0059845D01*
X0056693Y0056905D01*
X0060449Y0056905D01*
X0060449Y0056118D01*
X0061236Y0056118D01*
X0061236Y0051969D01*
X0063782Y0051969D01*
X0064136Y0052063D01*
X0064454Y0052247D01*
X0064714Y0052506D01*
X0064897Y0052824D01*
X0064992Y0053179D01*
X0064992Y0056118D01*
X0061236Y0056118D01*
X0061236Y0056905D01*
X0064992Y0056905D01*
X0064992Y0059845D01*
X0064897Y0060199D01*
X0064714Y0060517D01*
X0064454Y0060777D01*
X0064136Y0060960D01*
X0063782Y0061055D01*
X0061236Y0061055D01*
X0061236Y0056906D01*
X0060449Y0056906D01*
X0060449Y0061055D01*
X0057903Y0061055D01*
X0057549Y0060960D01*
X0057231Y0060777D01*
X0056971Y0060517D01*
X0056788Y0060199D01*
X0056693Y0059551D02*
X0053962Y0059551D01*
X0053962Y0058765D02*
X0056693Y0058765D01*
X0056693Y0057979D02*
X0053962Y0057979D01*
X0053962Y0057194D02*
X0056693Y0057194D01*
X0056693Y0056118D02*
X0056693Y0053179D01*
X0056788Y0052824D01*
X0056971Y0052506D01*
X0057231Y0052247D01*
X0057549Y0052063D01*
X0057903Y0051969D01*
X0060449Y0051969D01*
X0060449Y0056118D01*
X0056693Y0056118D01*
X0056693Y0055622D02*
X0053647Y0055622D01*
X0053962Y0056408D02*
X0060449Y0056408D01*
X0060449Y0057194D02*
X0061236Y0057194D01*
X0061236Y0057979D02*
X0060449Y0057979D01*
X0060449Y0058765D02*
X0061236Y0058765D01*
X0061236Y0059551D02*
X0060449Y0059551D01*
X0060449Y0060337D02*
X0061236Y0060337D01*
X0064818Y0060337D02*
X0068381Y0060337D01*
X0068117Y0059551D02*
X0064992Y0059551D01*
X0064992Y0058765D02*
X0068117Y0058765D01*
X0068117Y0057979D02*
X0064992Y0057979D01*
X0064992Y0057194D02*
X0068117Y0057194D01*
X0068117Y0056408D02*
X0061236Y0056408D01*
X0061236Y0055622D02*
X0060449Y0055622D01*
X0060449Y0054836D02*
X0061236Y0054836D01*
X0061236Y0054050D02*
X0060449Y0054050D01*
X0060449Y0053264D02*
X0061236Y0053264D01*
X0061236Y0052478D02*
X0060449Y0052478D01*
X0057000Y0052478D02*
X0050503Y0052478D01*
X0049717Y0051692D02*
X0085223Y0051692D01*
X0086008Y0050906D02*
X0048931Y0050906D01*
X0048145Y0050120D02*
X0087156Y0050120D01*
X0087225Y0049720D02*
X0083035Y0049720D01*
X0082681Y0049625D01*
X0082363Y0049442D01*
X0082104Y0049183D01*
X0081920Y0048865D01*
X0081825Y0048510D01*
X0081825Y0046320D01*
X0087225Y0046320D01*
X0087225Y0045533D01*
X0081825Y0045533D01*
X0081825Y0043343D01*
X0081920Y0042989D01*
X0082104Y0042671D01*
X0082363Y0042412D01*
X0082681Y0042228D01*
X0083035Y0042133D01*
X0087225Y0042133D01*
X0087225Y0045533D01*
X0088013Y0045533D01*
X0088013Y0046320D01*
X0093413Y0046320D01*
X0093413Y0048510D01*
X0093318Y0048865D01*
X0093134Y0049183D01*
X0092875Y0049442D01*
X0092557Y0049625D01*
X0092202Y0049720D01*
X0088013Y0049720D01*
X0088013Y0046321D01*
X0087225Y0046321D01*
X0087225Y0049720D01*
X0087225Y0049334D02*
X0088013Y0049334D01*
X0088013Y0048548D02*
X0087225Y0048548D01*
X0087225Y0047763D02*
X0088013Y0047763D01*
X0088013Y0046977D02*
X0087225Y0046977D01*
X0087225Y0046191D02*
X0068410Y0046191D01*
X0068391Y0046210D02*
X0068073Y0046393D01*
X0067719Y0046488D01*
X0064779Y0046488D01*
X0064779Y0042732D01*
X0063992Y0042732D01*
X0063992Y0041945D01*
X0059843Y0041945D01*
X0059843Y0039399D01*
X0059937Y0039045D01*
X0060121Y0038727D01*
X0060380Y0038467D01*
X0060698Y0038284D01*
X0061053Y0038189D01*
X0063992Y0038189D01*
X0063992Y0041945D01*
X0064779Y0041945D01*
X0064779Y0038189D01*
X0067719Y0038189D01*
X0068073Y0038284D01*
X0068391Y0038467D01*
X0068651Y0038727D01*
X0068834Y0039045D01*
X0068929Y0039399D01*
X0068929Y0041945D01*
X0064780Y0041945D01*
X0064780Y0042732D01*
X0068929Y0042732D01*
X0068929Y0045278D01*
X0068834Y0045632D01*
X0068651Y0045950D01*
X0068391Y0046210D01*
X0068895Y0045405D02*
X0081825Y0045405D01*
X0081825Y0044619D02*
X0068929Y0044619D01*
X0068929Y0043833D02*
X0081825Y0043833D01*
X0081905Y0043047D02*
X0068929Y0043047D01*
X0068929Y0041475D02*
X0106168Y0041475D01*
X0106168Y0040689D02*
X0068929Y0040689D01*
X0068929Y0039903D02*
X0082490Y0039903D01*
X0082225Y0039118D02*
X0079361Y0039118D01*
X0079281Y0039257D02*
X0079021Y0039517D01*
X0078703Y0039700D01*
X0078349Y0039795D01*
X0076591Y0039795D01*
X0076591Y0036630D01*
X0079559Y0036630D01*
X0079559Y0038585D01*
X0079464Y0038940D01*
X0079281Y0039257D01*
X0079559Y0038332D02*
X0082225Y0038332D01*
X0082225Y0037546D02*
X0079559Y0037546D01*
X0079559Y0036760D02*
X0082225Y0036760D01*
X0082225Y0035974D02*
X0076591Y0035974D01*
X0076591Y0035843D02*
X0076591Y0036630D01*
X0075803Y0036630D01*
X0075803Y0035843D01*
X0072835Y0035843D01*
X0072835Y0033887D01*
X0072930Y0033533D01*
X0073113Y0033215D01*
X0073373Y0032956D01*
X0073690Y0032772D01*
X0073951Y0032702D01*
X0073817Y0032702D01*
X0073235Y0032120D01*
X0073235Y0031068D01*
X0069573Y0031068D01*
X0068529Y0032112D01*
X0068529Y0034482D01*
X0067947Y0035065D01*
X0060825Y0035065D01*
X0060243Y0034482D01*
X0060243Y0028147D01*
X0060825Y0027565D01*
X0063195Y0027565D01*
X0066147Y0024613D01*
X0067431Y0024081D01*
X0071325Y0024081D01*
X0071325Y0013836D01*
X0071907Y0013254D01*
X0077730Y0013254D01*
X0078313Y0013836D01*
X0078313Y0024081D01*
X0088162Y0024081D01*
X0088770Y0024333D01*
X0092430Y0024333D01*
X0093013Y0024915D01*
X0093013Y0030538D01*
X0092430Y0031120D01*
X0082807Y0031120D01*
X0082755Y0031068D01*
X0079159Y0031068D01*
X0079159Y0032120D01*
X0078577Y0032702D01*
X0078443Y0032702D01*
X0078703Y0032772D01*
X0079021Y0032956D01*
X0079281Y0033215D01*
X0079464Y0033533D01*
X0079559Y0033887D01*
X0079559Y0035843D01*
X0076591Y0035843D01*
X0075803Y0035974D02*
X0033999Y0035974D01*
X0034785Y0036760D02*
X0072835Y0036760D01*
X0072835Y0036630D02*
X0075803Y0036630D01*
X0075803Y0039795D01*
X0074045Y0039795D01*
X0073690Y0039700D01*
X0073373Y0039517D01*
X0073113Y0039257D01*
X0072930Y0038940D01*
X0072835Y0038585D01*
X0072835Y0036630D01*
X0072835Y0037546D02*
X0035571Y0037546D01*
X0036357Y0038332D02*
X0060616Y0038332D01*
X0059918Y0039118D02*
X0037143Y0039118D01*
X0037929Y0039903D02*
X0059843Y0039903D01*
X0059843Y0040689D02*
X0038714Y0040689D01*
X0039500Y0041475D02*
X0059843Y0041475D01*
X0059843Y0042732D02*
X0063992Y0042732D01*
X0063992Y0046488D01*
X0061053Y0046488D01*
X0060698Y0046393D01*
X0060380Y0046210D01*
X0060121Y0045950D01*
X0059937Y0045632D01*
X0059843Y0045278D01*
X0059843Y0042732D01*
X0059843Y0043047D02*
X0041072Y0043047D01*
X0040286Y0042261D02*
X0063992Y0042261D01*
X0063992Y0041475D02*
X0064779Y0041475D01*
X0064779Y0040689D02*
X0063992Y0040689D01*
X0063992Y0039903D02*
X0064779Y0039903D01*
X0064779Y0039118D02*
X0063992Y0039118D01*
X0063992Y0038332D02*
X0064779Y0038332D01*
X0068156Y0038332D02*
X0072835Y0038332D01*
X0073032Y0039118D02*
X0068854Y0039118D01*
X0068529Y0034402D02*
X0072835Y0034402D01*
X0072835Y0035188D02*
X0033213Y0035188D01*
X0032427Y0034402D02*
X0060243Y0034402D01*
X0060243Y0033616D02*
X0031641Y0033616D01*
X0030855Y0032830D02*
X0060243Y0032830D01*
X0060243Y0032044D02*
X0022814Y0032044D01*
X0023714Y0031258D02*
X0060243Y0031258D01*
X0060243Y0030472D02*
X0024500Y0030472D01*
X0025286Y0029687D02*
X0060243Y0029687D01*
X0060243Y0028901D02*
X0026072Y0028901D01*
X0026858Y0028115D02*
X0060275Y0028115D01*
X0063431Y0027329D02*
X0027643Y0027329D01*
X0028429Y0026543D02*
X0064217Y0026543D01*
X0065003Y0025757D02*
X0029215Y0025757D01*
X0030001Y0024971D02*
X0065789Y0024971D01*
X0067180Y0024185D02*
X0030787Y0024185D01*
X0031573Y0023399D02*
X0071325Y0023399D01*
X0071325Y0022613D02*
X0032359Y0022613D01*
X0033145Y0021827D02*
X0071325Y0021827D01*
X0071325Y0021042D02*
X0033931Y0021042D01*
X0029551Y0015540D02*
X0023241Y0015540D01*
X0023452Y0014754D02*
X0030336Y0014754D01*
X0031422Y0013968D02*
X0023504Y0013968D01*
X0023504Y0013182D02*
X0121016Y0013182D01*
X0121016Y0012396D02*
X0023504Y0012396D01*
X0023440Y0011611D02*
X0121080Y0011611D01*
X0121290Y0010825D02*
X0023230Y0010825D01*
X0023019Y0010039D02*
X0121501Y0010039D01*
X0121711Y0009253D02*
X0022808Y0009253D01*
X0022362Y0008467D02*
X0122158Y0008467D01*
X0122612Y0007681D02*
X0021908Y0007681D01*
X0021454Y0006895D02*
X0123065Y0006895D01*
X0123845Y0006109D02*
X0020674Y0006109D01*
X0023031Y0016326D02*
X0028765Y0016326D01*
X0027979Y0017112D02*
X0022820Y0017112D01*
X0022388Y0017898D02*
X0027193Y0017898D01*
X0026407Y0018684D02*
X0021934Y0018684D01*
X0021480Y0019470D02*
X0025621Y0019470D01*
X0024835Y0020256D02*
X0020719Y0020256D01*
X0019933Y0021042D02*
X0024049Y0021042D01*
X0023263Y0021827D02*
X0018868Y0021827D01*
X0017507Y0022613D02*
X0022477Y0022613D01*
X0021691Y0023399D02*
X0014951Y0023399D01*
X0016615Y0024971D02*
X0011920Y0024971D01*
X0011458Y0023399D02*
X0005787Y0023399D01*
X0005787Y0022613D02*
X0008903Y0022613D01*
X0007541Y0021827D02*
X0005787Y0021827D01*
X0005787Y0021042D02*
X0006476Y0021042D01*
X0005787Y0024185D02*
X0020905Y0024185D01*
X0023400Y0035974D02*
X0030075Y0035974D01*
X0030861Y0036760D02*
X0023867Y0036760D01*
X0024166Y0037546D02*
X0031647Y0037546D01*
X0032433Y0038332D02*
X0024327Y0038332D01*
X0008261Y0033616D02*
X0005787Y0033616D01*
X0005787Y0032830D02*
X0006507Y0032830D01*
X0005787Y0034402D02*
X0007989Y0034402D01*
X0006395Y0035188D02*
X0005787Y0035188D01*
X0005787Y0025757D02*
X0005826Y0025757D01*
X0005787Y0024971D02*
X0006615Y0024971D01*
X0041858Y0043833D02*
X0059843Y0043833D01*
X0059843Y0044619D02*
X0042644Y0044619D01*
X0043430Y0045405D02*
X0059877Y0045405D01*
X0060361Y0046191D02*
X0044216Y0046191D01*
X0045002Y0046977D02*
X0081825Y0046977D01*
X0081825Y0047763D02*
X0045788Y0047763D01*
X0046574Y0048548D02*
X0081835Y0048548D01*
X0082256Y0049334D02*
X0047359Y0049334D01*
X0051289Y0053264D02*
X0056693Y0053264D01*
X0056693Y0054050D02*
X0052075Y0054050D01*
X0052861Y0054836D02*
X0056693Y0054836D01*
X0053962Y0061909D02*
X0081033Y0061909D01*
X0080709Y0062695D02*
X0053962Y0062695D01*
X0053962Y0063481D02*
X0080709Y0063481D01*
X0080709Y0064267D02*
X0053962Y0064267D01*
X0053962Y0065053D02*
X0083677Y0065053D01*
X0083677Y0064267D02*
X0084465Y0064267D01*
X0084465Y0065053D02*
X0089639Y0065053D01*
X0089084Y0060337D02*
X0075352Y0060337D01*
X0075616Y0059551D02*
X0089870Y0059551D01*
X0087057Y0057194D02*
X0106668Y0057194D01*
X0106668Y0057979D02*
X0086470Y0057979D01*
X0085746Y0058765D02*
X0106668Y0058765D01*
X0106668Y0056408D02*
X0087843Y0056408D01*
X0088629Y0055622D02*
X0106668Y0055622D01*
X0106168Y0049334D02*
X0092982Y0049334D01*
X0093402Y0048548D02*
X0106168Y0048548D01*
X0106168Y0047763D02*
X0093413Y0047763D01*
X0093413Y0046977D02*
X0106168Y0046977D01*
X0106168Y0046191D02*
X0088013Y0046191D01*
X0088013Y0045533D02*
X0093413Y0045533D01*
X0093413Y0043343D01*
X0093318Y0042989D01*
X0093134Y0042671D01*
X0092875Y0042412D01*
X0092557Y0042228D01*
X0092202Y0042133D01*
X0088013Y0042133D01*
X0088013Y0045533D01*
X0088013Y0045405D02*
X0087225Y0045405D01*
X0087225Y0044619D02*
X0088013Y0044619D01*
X0088013Y0043833D02*
X0087225Y0043833D01*
X0087225Y0043047D02*
X0088013Y0043047D01*
X0088013Y0042261D02*
X0087225Y0042261D01*
X0082624Y0042261D02*
X0064780Y0042261D01*
X0064779Y0043047D02*
X0063992Y0043047D01*
X0063992Y0043833D02*
X0064779Y0043833D01*
X0064779Y0044619D02*
X0063992Y0044619D01*
X0063992Y0045405D02*
X0064779Y0045405D01*
X0064779Y0046191D02*
X0063992Y0046191D01*
X0064685Y0052478D02*
X0068589Y0052478D01*
X0068117Y0053264D02*
X0064992Y0053264D01*
X0064992Y0054050D02*
X0068117Y0054050D01*
X0068117Y0054836D02*
X0064992Y0054836D01*
X0064992Y0055622D02*
X0068117Y0055622D01*
X0075143Y0052478D02*
X0084437Y0052478D01*
X0083651Y0053264D02*
X0075616Y0053264D01*
X0083677Y0061909D02*
X0084465Y0061909D01*
X0084465Y0062695D02*
X0083677Y0062695D01*
X0083677Y0063481D02*
X0084465Y0063481D01*
X0080709Y0065839D02*
X0053962Y0065839D01*
X0053962Y0066624D02*
X0080709Y0066624D01*
X0080731Y0067410D02*
X0053962Y0067410D01*
X0053962Y0069768D02*
X0059960Y0069768D01*
X0077841Y0082343D02*
X0103522Y0082343D01*
X0100006Y0074484D02*
X0099631Y0074484D01*
X0099631Y0073698D02*
X0100006Y0073698D01*
X0100006Y0072912D02*
X0099631Y0072912D01*
X0099631Y0072126D02*
X0100006Y0072126D01*
X0100006Y0071340D02*
X0099631Y0071340D01*
X0099631Y0070554D02*
X0100006Y0070554D01*
X0100118Y0069768D02*
X0099520Y0069768D01*
X0093313Y0074484D02*
X0086796Y0074484D01*
X0087033Y0070554D02*
X0090451Y0070554D01*
X0090451Y0069768D02*
X0087033Y0069768D01*
X0081346Y0074484D02*
X0080022Y0074484D01*
X0079114Y0083129D02*
X0078581Y0083129D01*
X0093413Y0045405D02*
X0106168Y0045405D01*
X0106168Y0044619D02*
X0093413Y0044619D01*
X0093413Y0043833D02*
X0106168Y0043833D01*
X0106168Y0043047D02*
X0093333Y0043047D01*
X0092614Y0042261D02*
X0106168Y0042261D01*
X0113155Y0045405D02*
X0120775Y0045405D01*
X0119989Y0046191D02*
X0113155Y0046191D01*
X0106695Y0032830D02*
X0078804Y0032830D01*
X0079159Y0032044D02*
X0106695Y0032044D01*
X0106695Y0031258D02*
X0079159Y0031258D01*
X0079486Y0033616D02*
X0082624Y0033616D01*
X0082225Y0034402D02*
X0079559Y0034402D01*
X0079559Y0035188D02*
X0082225Y0035188D01*
X0076591Y0036760D02*
X0075803Y0036760D01*
X0075803Y0037546D02*
X0076591Y0037546D01*
X0076591Y0038332D02*
X0075803Y0038332D01*
X0075803Y0039118D02*
X0076591Y0039118D01*
X0072907Y0033616D02*
X0068529Y0033616D01*
X0068529Y0032830D02*
X0073590Y0032830D01*
X0073235Y0032044D02*
X0068597Y0032044D01*
X0069383Y0031258D02*
X0073235Y0031258D01*
X0078313Y0023399D02*
X0109246Y0023399D01*
X0109246Y0022613D02*
X0078313Y0022613D01*
X0078313Y0021827D02*
X0109246Y0021827D01*
X0109246Y0021042D02*
X0078313Y0021042D01*
X0078313Y0020256D02*
X0086152Y0020256D01*
X0086348Y0020369D02*
X0085896Y0020107D01*
X0085526Y0019738D01*
X0085265Y0019286D01*
X0085130Y0018781D01*
X0085130Y0017535D01*
X0088098Y0017535D01*
X0088098Y0016748D01*
X0085130Y0016748D01*
X0085130Y0015503D01*
X0085265Y0014998D01*
X0085526Y0014545D01*
X0085896Y0014176D01*
X0086348Y0013915D01*
X0086853Y0013780D01*
X0088098Y0013780D01*
X0088098Y0016748D01*
X0088886Y0016748D01*
X0088886Y0017535D01*
X0091854Y0017535D01*
X0091854Y0018781D01*
X0091719Y0019286D01*
X0091458Y0019738D01*
X0091088Y0020107D01*
X0090636Y0020369D01*
X0090131Y0020504D01*
X0088886Y0020504D01*
X0088886Y0017535D01*
X0088098Y0017535D01*
X0088098Y0020504D01*
X0086853Y0020504D01*
X0086348Y0020369D01*
X0085371Y0019470D02*
X0078313Y0019470D01*
X0078313Y0018684D02*
X0085130Y0018684D01*
X0085130Y0017898D02*
X0078313Y0017898D01*
X0078313Y0017112D02*
X0088098Y0017112D01*
X0088098Y0017898D02*
X0088886Y0017898D01*
X0088886Y0018684D02*
X0088098Y0018684D01*
X0088098Y0019470D02*
X0088886Y0019470D01*
X0088886Y0020256D02*
X0088098Y0020256D01*
X0090832Y0020256D02*
X0109246Y0020256D01*
X0107880Y0019470D02*
X0107505Y0019470D01*
X0107505Y0019522D02*
X0106923Y0020104D01*
X0101769Y0020104D01*
X0101187Y0019522D01*
X0101187Y0018935D01*
X0098360Y0018935D01*
X0098360Y0019176D01*
X0097432Y0020104D01*
X0093363Y0020104D01*
X0092435Y0019176D01*
X0092435Y0015108D01*
X0093363Y0014180D01*
X0097432Y0014180D01*
X0098360Y0015108D01*
X0098360Y0015348D01*
X0101187Y0015348D01*
X0101187Y0014762D01*
X0101769Y0014180D01*
X0106923Y0014180D01*
X0107505Y0014762D01*
X0107505Y0019522D01*
X0107505Y0018684D02*
X0107880Y0018684D01*
X0107880Y0017898D02*
X0107505Y0017898D01*
X0107505Y0017112D02*
X0107880Y0017112D01*
X0107880Y0016326D02*
X0107505Y0016326D01*
X0107505Y0015540D02*
X0107880Y0015540D01*
X0107888Y0014754D02*
X0107498Y0014754D01*
X0101195Y0014754D02*
X0098006Y0014754D01*
X0098066Y0019470D02*
X0101187Y0019470D01*
X0109246Y0024185D02*
X0088413Y0024185D01*
X0093013Y0024971D02*
X0109246Y0024971D01*
X0109246Y0025757D02*
X0093013Y0025757D01*
X0093013Y0026543D02*
X0109246Y0026543D01*
X0109246Y0027329D02*
X0093013Y0027329D01*
X0093013Y0028115D02*
X0109246Y0028115D01*
X0107123Y0028901D02*
X0093013Y0028901D01*
X0093013Y0029687D02*
X0106695Y0029687D01*
X0106695Y0030472D02*
X0093013Y0030472D01*
X0092729Y0019470D02*
X0091613Y0019470D01*
X0091854Y0018684D02*
X0092435Y0018684D01*
X0092435Y0017898D02*
X0091854Y0017898D01*
X0092435Y0017112D02*
X0088886Y0017112D01*
X0088886Y0016748D02*
X0091854Y0016748D01*
X0091854Y0015503D01*
X0091719Y0014998D01*
X0091458Y0014545D01*
X0091088Y0014176D01*
X0090636Y0013915D01*
X0090131Y0013780D01*
X0088886Y0013780D01*
X0088886Y0016748D01*
X0088886Y0016326D02*
X0088098Y0016326D01*
X0088098Y0015540D02*
X0088886Y0015540D01*
X0088886Y0014754D02*
X0088098Y0014754D01*
X0088098Y0013968D02*
X0088886Y0013968D01*
X0090729Y0013968D02*
X0121016Y0013968D01*
X0121068Y0014754D02*
X0114191Y0014754D01*
X0114198Y0015540D02*
X0121278Y0015540D01*
X0121489Y0016326D02*
X0114198Y0016326D01*
X0114198Y0017112D02*
X0121699Y0017112D01*
X0122132Y0017898D02*
X0114198Y0017898D01*
X0114198Y0018684D02*
X0122586Y0018684D01*
X0123040Y0019470D02*
X0114198Y0019470D01*
X0112833Y0020256D02*
X0123801Y0020256D01*
X0124586Y0021042D02*
X0112833Y0021042D01*
X0112833Y0021827D02*
X0125652Y0021827D01*
X0127013Y0022613D02*
X0112833Y0022613D01*
X0112833Y0023399D02*
X0129568Y0023399D01*
X0128438Y0024971D02*
X0132599Y0024971D01*
X0131810Y0025757D02*
X0129226Y0025757D01*
X0129741Y0026543D02*
X0131170Y0026543D01*
X0130844Y0027329D02*
X0130080Y0027329D01*
X0130276Y0028115D02*
X0130558Y0028115D01*
X0127062Y0024185D02*
X0138732Y0024185D01*
X0138732Y0023399D02*
X0133061Y0023399D01*
X0135617Y0022613D02*
X0138732Y0022613D01*
X0138732Y0021827D02*
X0136978Y0021827D01*
X0138043Y0021042D02*
X0138732Y0021042D01*
X0138732Y0024971D02*
X0137905Y0024971D01*
X0138694Y0025757D02*
X0138732Y0025757D01*
X0092789Y0014754D02*
X0091578Y0014754D01*
X0091854Y0015540D02*
X0092435Y0015540D01*
X0092435Y0016326D02*
X0091854Y0016326D01*
X0086256Y0013968D02*
X0078313Y0013968D01*
X0078313Y0014754D02*
X0085406Y0014754D01*
X0085130Y0015540D02*
X0078313Y0015540D01*
X0078313Y0016326D02*
X0085130Y0016326D01*
X0071325Y0016326D02*
X0061383Y0016326D01*
X0061383Y0015540D02*
X0071325Y0015540D01*
X0071325Y0014754D02*
X0061383Y0014754D01*
X0061383Y0013968D02*
X0071325Y0013968D01*
X0071325Y0017112D02*
X0061383Y0017112D01*
X0061383Y0017898D02*
X0071325Y0017898D01*
X0071325Y0018684D02*
X0061383Y0018684D01*
X0061383Y0019470D02*
X0071325Y0019470D01*
X0071325Y0020256D02*
X0061383Y0020256D01*
M02*
