G75*
%MOIN*%
%OFA0B0*%
%FSLAX25Y25*%
%IPPOS*%
%LPD*%
%AMOC8*
5,1,8,0,0,1.08239X$1,22.5*
%
%ADD10R,0.06299X0.05512*%
%ADD11R,0.03937X0.04331*%
%ADD12R,0.05512X0.06299*%
%ADD13R,0.04331X0.03937*%
%ADD14R,0.05000X0.05787*%
%ADD15R,0.08800X0.04800*%
%ADD16R,0.08661X0.14173*%
%ADD17R,0.00787X0.03937*%
%ADD18R,0.03937X0.00787*%
%ADD19R,0.01575X0.07874*%
%ADD20C,0.01181*%
D10*
X0064386Y0031315D03*
X0064386Y0042339D03*
D11*
X0076197Y0036236D03*
X0076197Y0029543D03*
X0084071Y0064976D03*
X0084071Y0071669D03*
D12*
X0071866Y0056512D03*
X0060843Y0056512D03*
D13*
X0050016Y0086039D03*
X0043323Y0086039D03*
X0096472Y0072260D03*
X0103165Y0072260D03*
X0104346Y0017142D03*
X0111039Y0017142D03*
D14*
X0057890Y0017142D03*
X0074819Y0017142D03*
D15*
X0087619Y0027727D03*
X0087619Y0036827D03*
X0087619Y0045927D03*
D16*
X0112020Y0036827D03*
D17*
X0079150Y0089976D03*
X0077181Y0089976D03*
X0075213Y0089976D03*
X0073244Y0089976D03*
X0071276Y0089976D03*
X0069307Y0089976D03*
X0067339Y0089976D03*
X0065370Y0089976D03*
X0063402Y0089976D03*
X0061433Y0089976D03*
X0059465Y0089976D03*
X0057496Y0089976D03*
X0057496Y0125409D03*
X0059465Y0125409D03*
X0061433Y0125409D03*
X0063402Y0125409D03*
X0065370Y0125409D03*
X0067339Y0125409D03*
X0069307Y0125409D03*
X0071276Y0125409D03*
X0073244Y0125409D03*
X0075213Y0125409D03*
X0077181Y0125409D03*
X0079150Y0125409D03*
D18*
X0086039Y0118520D03*
X0086039Y0116551D03*
X0086039Y0114583D03*
X0086039Y0112614D03*
X0086039Y0110646D03*
X0086039Y0108677D03*
X0086039Y0106709D03*
X0086039Y0104740D03*
X0086039Y0102772D03*
X0086039Y0100803D03*
X0086039Y0098835D03*
X0086039Y0096866D03*
X0050606Y0096866D03*
X0050606Y0098835D03*
X0050606Y0100803D03*
X0050606Y0102772D03*
X0050606Y0104740D03*
X0050606Y0106709D03*
X0050606Y0108677D03*
X0050606Y0110646D03*
X0050606Y0112614D03*
X0050606Y0114583D03*
X0050606Y0116551D03*
X0050606Y0118520D03*
D19*
X0061630Y0074228D03*
X0066354Y0074228D03*
X0071079Y0074228D03*
D20*
X0089870Y0018520D02*
X0089870Y0015764D01*
X0087114Y0015764D01*
X0087114Y0018520D01*
X0089870Y0018520D01*
X0089870Y0016944D02*
X0087114Y0016944D01*
X0087114Y0018124D02*
X0089870Y0018124D01*
X0096776Y0018520D02*
X0096776Y0015764D01*
X0094020Y0015764D01*
X0094020Y0018520D01*
X0096776Y0018520D01*
X0096776Y0016944D02*
X0094020Y0016944D01*
X0094020Y0018124D02*
X0096776Y0018124D01*
M02*
