G75*
%MOIN*%
%OFA0B0*%
%FSLAX25Y25*%
%IPPOS*%
%LPD*%
%AMOC8*
5,1,8,0,0,1.08239X$1,22.5*
%
%ADD10C,0.12611*%
%ADD11R,0.04737X0.05131*%
%ADD12C,0.08200*%
%ADD13R,0.07100X0.05400*%
%ADD14R,0.07200X0.00600*%
%ADD15C,0.07400*%
%ADD16OC8,0.08200*%
%ADD17R,0.06706X0.05524*%
%ADD18R,0.08280X0.05918*%
D10*
X0013205Y0013205D03*
X0131315Y0013205D03*
X0131315Y0154937D03*
X0013205Y0154937D03*
D11*
X0028953Y0101197D03*
X0028953Y0094504D03*
X0019110Y0079543D03*
X0019110Y0072850D03*
X0019110Y0065764D03*
X0019110Y0059071D03*
X0028953Y0059858D03*
X0028953Y0053165D03*
X0052575Y0053165D03*
X0052575Y0059858D03*
X0048638Y0094504D03*
X0048638Y0101197D03*
X0089976Y0091354D03*
X0089976Y0084661D03*
X0099819Y0100409D03*
X0099819Y0107102D03*
X0099819Y0114189D03*
X0099819Y0120882D03*
X0117535Y0120094D03*
X0117535Y0126787D03*
X0117535Y0111039D03*
X0117535Y0104346D03*
D12*
X0135252Y0108953D03*
X0135252Y0118953D03*
X0135252Y0128953D03*
X0135252Y0138953D03*
X0125252Y0138953D03*
X0135252Y0098953D03*
X0135252Y0088953D03*
X0135252Y0078953D03*
X0135252Y0068953D03*
X0135252Y0058953D03*
X0135252Y0048953D03*
X0135252Y0038953D03*
X0135252Y0028953D03*
X0125252Y0028953D03*
X0019268Y0028953D03*
X0019268Y0038953D03*
X0009268Y0038953D03*
X0009268Y0048953D03*
X0009268Y0058953D03*
X0009268Y0068953D03*
X0009268Y0078953D03*
X0009268Y0088953D03*
X0009268Y0098953D03*
X0009268Y0108953D03*
X0009268Y0118953D03*
X0009268Y0128953D03*
X0009268Y0138953D03*
X0019268Y0138953D03*
X0028638Y0154937D03*
X0038638Y0154937D03*
X0048638Y0154937D03*
X0009268Y0028953D03*
D13*
X0038795Y0094850D03*
X0038795Y0100850D03*
D14*
X0038795Y0097850D03*
D15*
X0035764Y0068323D03*
X0045764Y0068323D03*
D16*
X0076945Y0142063D03*
X0076945Y0152063D03*
X0086945Y0152063D03*
X0086945Y0142063D03*
X0096945Y0142063D03*
X0096945Y0152063D03*
X0106945Y0152063D03*
X0106945Y0142063D03*
D17*
X0095291Y0017142D03*
X0064976Y0017142D03*
D18*
X0099819Y0084071D03*
X0099819Y0091945D03*
M02*
